<svg width="1280" height="796" viewBox="0 0 1280 796" fill="none" xmlns="http://www.w3.org/2000/svg">
<g clip-path="url(#clip0_32_137)">
<path d="M1280 0H0V796H1280V0Z" fill="url(#paint0_linear_32_137)"/>
<path d="M1280 385H0V410H1280V385Z" fill="#F5F5F5"/>
<path d="M1280 0H0V796H1280V0Z" fill="url(#paint1_linear_32_137)"/>
<path d="M1280 698H0V723H1280V698Z" fill="#F5F5F5"/>
<mask id="mask0_32_137" style="mask-type:luminance" maskUnits="userSpaceOnUse" x="473" y="99" width="333" height="599">
<path d="M473 265.5C473 173.545 547.545 99 639.5 99C731.455 99 806 173.545 806 265.5V698H473V265.5Z" fill="white"/>
</mask>
<g mask="url(#mask0_32_137)">
<path d="M463 265.5C463 168.022 542.022 89 639.5 89C736.978 89 816 168.022 816 265.5H796C796 179.067 725.933 109 639.5 109C553.067 109 483 179.067 483 265.5H463ZM463 698V265.5C463 168.022 542.022 89 639.5 89V109C553.067 109 483 179.067 483 265.5V698H463ZM639.5 89C736.978 89 816 168.022 816 265.5V698H796V265.5C796 179.067 725.933 109 639.5 109V89Z" fill="#F5F5F5"/>
</g>
<mask id="mask1_32_137" style="mask-type:luminance" maskUnits="userSpaceOnUse" x="112" y="34" width="1055" height="664">
<path d="M112 366C112 182.641 260.641 34 444 34H835C1018.36 34 1167 182.641 1167 366V698H112V366Z" fill="white"/>
</mask>
<g mask="url(#mask1_32_137)">
<path d="M102 366C102 177.119 255.119 24 444 24H835C1023.88 24 1177 177.119 1177 366H1157C1157 188.164 1012.84 44 835 44H444C266.164 44 122 188.164 122 366H102ZM102 698V366C102 177.119 255.119 24 444 24V44C266.164 44 122 188.164 122 366V698H102ZM835 24C1023.88 24 1177 177.119 1177 366V698H1157V366C1157 188.164 1012.84 44 835 44V24Z" fill="#F5F5F5"/>
</g>
<path d="M637.853 104.162C648.319 104.081 658.562 104.974 668.489 106.755L667.606 111.676L667.605 111.678C687.701 115.282 706.442 122.635 723.01 132.962L725.655 128.719C743.256 139.689 758.492 153.917 770.438 170.539L766.378 173.457L766.375 173.458C777.901 189.496 786.252 207.823 790.546 227.604H790.549L795.434 226.543C797.583 236.443 798.75 246.693 798.831 257.19L798.833 259.156C798.782 268.97 797.779 278.575 795.907 287.886L791.006 286.901H791.003C787.015 306.745 778.947 325.199 767.67 341.413L767.673 341.415L771.777 344.27C760.09 361.074 745.075 375.535 727.645 386.776L724.936 382.574L724.935 382.572C708.528 393.153 689.903 400.795 669.864 404.709L669.865 404.711L670.824 409.619C660.926 411.552 650.698 412.603 640.232 412.684C629.766 412.765 619.523 411.871 609.597 410.091L610.48 405.169V405.167C590.383 401.562 571.643 394.21 555.074 383.883V383.884L552.429 388.127C534.828 377.156 519.593 362.928 507.647 346.306L511.708 343.388L511.709 343.386C500.183 327.349 491.831 309.021 487.538 289.241L487.537 289.242L482.65 290.302C480.501 280.401 479.336 270.152 479.255 259.654C479.174 249.157 480.181 238.891 482.177 228.958L487.079 229.944C491.067 210.1 499.137 191.646 510.413 175.432V175.431L506.307 172.576C517.995 155.772 533.01 141.31 550.44 130.07L553.149 134.271C569.556 123.689 588.182 116.05 608.22 112.136V112.134L607.262 107.227C617.159 105.293 627.387 104.243 637.853 104.162Z" fill="#D15D3D" stroke="white" stroke-width="10" stroke-dasharray="60 60"/>
<path opacity="0.5" d="M834.199 261.162C850.226 262.36 864.317 248.647 865.671 230.532C867.025 212.417 855.13 196.76 839.103 195.562C823.076 194.364 808.985 208.078 807.631 226.193C806.277 244.308 818.172 259.964 834.199 261.162Z" fill="black"/>
<path d="M855.941 220.119C854.675 218.858 853.27 217.716 851.791 216.699C851.254 216.076 850.614 215.542 849.865 215.162C846.849 213.479 843.531 212.356 840.071 211.838C839.655 211.775 839.229 211.84 838.828 212.004C838.506 211.98 838.154 211.922 837.832 211.898C837.252 211.854 836.608 211.806 836.023 211.827C836.161 211.708 836.047 211.505 835.918 211.495C828.862 211.421 822.133 213.899 816.732 218.549C816.663 218.608 816.594 218.668 816.49 218.757C816.005 219.174 815.644 219.666 815.343 220.226C814.048 221.522 812.906 222.927 811.889 224.406C811.968 224.218 811.685 224.099 811.606 224.288C808.801 228.451 807.077 233.311 806.691 238.465C806.359 242.911 807.033 247.334 808.642 251.374C808.916 252.043 809.319 252.721 809.83 253.245C810.93 255.432 812.268 257.476 813.907 259.38C813.937 259.415 813.966 259.45 813.996 259.484C813.966 259.45 813.872 259.41 813.842 259.375C813.689 259.267 813.545 259.45 813.664 259.589C815.363 261.562 817.275 263.293 819.404 264.715C819.96 265.08 820.555 265.352 821.194 265.464C822.375 266.136 823.625 266.747 824.88 267.295C824.716 267.315 824.667 267.538 824.856 267.617C826.775 268.376 828.773 268.946 830.82 269.294C831.108 269.348 831.405 269.273 831.643 269.128C832.317 269.211 832.991 269.294 833.635 269.342C833.893 269.361 834.151 269.381 834.443 269.37C834.275 269.455 834.354 269.687 834.518 269.667C836.778 269.771 839.057 269.618 841.226 269.197C841.39 269.177 841.409 268.919 841.216 268.905C843.023 268.554 844.777 268.069 846.48 267.387C847.129 267.37 847.792 267.161 848.396 266.882C850.648 265.787 852.826 264.395 854.799 262.696C858.365 259.626 861.077 255.844 862.788 251.599C862.867 251.411 862.614 251.327 862.505 251.481C863.382 249.279 864.007 246.993 864.348 244.589C864.392 244.43 864.501 244.276 864.545 244.118C864.738 243.711 864.836 243.265 864.87 242.814C865.448 235.083 862.998 227.546 857.901 221.626C857.395 221.037 856.883 220.513 856.342 219.954C856.094 219.806 855.891 219.921 855.941 220.119Z" fill="#D15D3D"/>
<g opacity="0.1">
<path opacity="0.1" d="M818.767 217.341C820.206 216.282 821.765 215.362 823.379 214.576C824.002 214.039 824.715 213.607 825.512 213.342C825.611 213.317 825.71 213.292 825.844 213.237L823.737 214.991C820.418 217.788 817.379 222.031 820.211 232.253C821.08 235.363 823.55 243.484 828.127 251.6C829.898 254.778 831.797 257.544 833.734 259.794C835.135 261.421 836.585 262.825 838.029 263.873C839.821 263.294 841.564 262.517 843.222 261.572C840.971 258.748 840.485 253.982 841.346 244.199C843.111 224.052 840.513 216.342 838.009 213.434L837.949 213.365C837.532 212.88 837.105 212.524 836.609 212.228L835.339 211.453C835.468 211.463 835.567 211.438 835.696 211.447C836.117 211.446 836.528 211.574 836.901 211.796C837.223 211.82 837.579 211.815 837.902 211.839C838.481 211.882 839.126 211.93 839.701 212.038C839.581 211.9 839.725 211.716 839.854 211.726C839.982 211.735 840.077 211.775 840.176 211.75C844.215 216.651 845.502 227.6 844.022 244.366C843.214 253.441 843.63 257.845 845.478 259.992C845.508 260.026 845.538 260.061 845.538 260.061C846.597 259.33 847.66 258.535 848.63 257.7C858.393 249.295 862.214 235.878 858.372 223.573L857.718 221.483C857.748 221.518 857.748 221.518 857.778 221.553C857.838 221.622 857.897 221.691 857.987 221.795C858.404 222.28 858.687 222.819 858.902 223.418C859.99 224.892 860.91 226.451 861.697 228.065C861.647 227.867 861.944 227.792 861.994 227.99C862.108 228.193 862.188 228.426 862.302 228.629C862.61 231.016 862.689 233.419 862.506 235.868C861.808 245.21 857.515 253.668 850.418 259.778C849.622 260.463 848.83 261.084 847.974 261.701C849.749 262.222 852.706 261.666 859.087 256.474L861.021 254.869C860.947 254.993 860.908 255.087 860.834 255.211C860.463 255.832 859.964 256.442 859.381 256.884C857.968 258.884 856.341 260.706 854.437 262.346C854.403 262.376 854.368 262.405 854.333 262.435C854.368 262.405 854.467 262.38 854.502 262.351C854.67 262.266 854.784 262.469 854.646 262.588C854.369 262.827 854.057 263.095 853.75 263.299C853.077 263.637 852.409 263.911 851.78 264.091C848.695 265.059 846.711 264.295 845.322 263.381C843.931 264.217 842.451 264.948 840.912 265.611C841.07 265.655 841.224 265.764 841.383 265.808C843.015 266.513 844.71 266.802 846.365 266.763L848.575 266.669C848.476 266.694 848.372 266.784 848.273 266.809C847.669 267.088 847.04 267.267 846.391 267.284C845.123 267.772 843.796 268.191 842.474 268.546C842.633 268.59 842.648 268.818 842.45 268.868C842.316 268.923 842.153 268.943 841.989 268.963C841.419 268.791 840.819 268.584 840.254 268.347C839.311 267.953 838.379 267.43 837.451 266.842C836.391 267.152 835.336 267.397 834.281 267.642C834.862 268.106 835.413 268.536 835.865 268.991L836.59 269.693C836.491 269.718 836.396 269.679 836.297 269.704C836.005 269.714 835.722 269.596 835.509 269.418C834.83 269.4 834.151 269.381 833.507 269.333C833.249 269.314 832.991 269.295 832.704 269.241C832.858 269.349 832.744 269.568 832.586 269.524C832.457 269.514 832.298 269.47 832.135 269.49C831.549 269.09 830.904 268.62 830.189 268.211C829.05 268.287 827.88 268.33 826.686 268.273C826.433 268.189 826.21 268.14 825.992 268.026C825.833 267.982 825.853 267.724 826.046 267.739C824.31 267.123 822.649 266.384 821.066 265.455C820.426 265.343 819.801 265.037 819.246 264.672C819.151 264.632 819.092 264.563 818.968 264.489L821.139 264.91C822.542 265.209 823.955 265.38 825.372 265.486C821.085 263.027 816.168 259.906 812.055 255.129C810.296 253.086 808.78 250.835 807.536 248.409C807.431 248.077 807.361 247.716 807.256 247.384C807.206 247.186 807.469 247.141 807.554 247.309C807.013 245.001 806.736 242.648 806.755 240.22C806.735 240.057 806.65 239.888 806.63 239.725C806.501 239.294 806.47 238.838 806.504 238.387C806.523 238.129 806.547 237.807 806.566 237.55L807.221 240.06C808.585 245.216 810.853 249.532 814.102 253.306C818.543 258.464 824.169 261.638 828.645 264.175C829.389 264.62 830.044 264.96 830.664 265.331C831.937 265.199 833.25 264.973 834.532 264.713C833.5 263.793 832.447 262.71 831.404 261.499C824.668 253.674 819.676 241.575 817.314 232.878C815.531 226.396 815.718 221.292 817.86 217.338C817.998 217.219 818.137 217.099 818.305 217.015C818.662 217.009 818.846 217.152 818.767 217.341Z" fill="#1A1A1A"/>
</g>
<path d="M828.604 264.688C829.349 265.133 830.098 265.513 830.748 265.917C832.477 265.755 834.185 265.429 835.869 265.005C826.86 257.69 820.582 241.996 818.03 232.8C815.943 225.193 816.913 220.439 818.735 217.303C820.175 216.245 821.734 215.325 823.347 214.538C820.236 217.157 816.643 221.455 819.65 232.37C820.484 235.51 823.014 243.7 827.62 251.852C830.853 257.568 834.356 261.846 837.855 264.44C839.979 263.757 842.024 262.841 843.989 261.692C841.466 259.041 840.945 254.305 841.795 244.23C843.605 223.924 840.917 216.111 838.324 213.099C838.294 213.064 838.294 213.064 838.264 213.03C837.817 212.51 837.36 212.12 836.834 211.789C837.157 211.813 837.513 211.807 837.835 211.831C838.415 211.875 839.06 211.923 839.635 212.031C843.654 216.769 844.916 227.618 843.436 244.385C842.618 253.588 843.029 258.057 845.026 260.376C845.146 260.515 845.265 260.653 845.419 260.762C846.611 259.977 847.813 259.062 848.921 258.108C859.135 249.316 862.593 235.548 858.801 223.44C859.889 224.915 860.81 226.474 861.596 228.087C861.958 230.609 862.088 233.21 861.89 235.851C861.202 245.065 856.983 253.398 849.989 259.419C848.985 260.284 847.887 261.109 846.828 261.839C848.694 262.886 851.687 263.142 859.344 256.911C857.931 258.911 856.305 260.734 854.401 262.373C854.366 262.403 854.332 262.432 854.297 262.462C853.317 263.005 852.446 263.393 851.584 263.652C848.663 264.6 846.808 263.846 845.264 262.824C843.433 263.918 841.518 264.844 839.552 265.571C840.048 265.868 840.549 266.099 841.05 266.331C842.776 267.076 844.501 267.399 846.26 267.271C844.993 267.76 843.666 268.179 842.343 268.533C841.709 268.356 841.044 268.145 840.385 267.869C839.378 267.47 838.415 266.912 837.458 266.289C835.967 266.729 834.452 267.069 832.876 267.34C833.864 267.997 834.718 268.709 835.413 269.376C834.734 269.358 834.055 269.339 833.411 269.291C833.153 269.272 832.895 269.253 832.608 269.199C831.933 268.695 831.159 268.216 830.261 267.663C828.859 267.785 827.432 267.808 825.98 267.731C824.244 267.116 822.582 266.376 821 265.448C823.107 265.865 825.292 266.093 827.463 266.093C822.675 263.403 817.054 260.164 812.434 254.798C810.616 252.686 808.955 250.197 807.552 247.306C807.012 244.998 806.734 242.645 806.754 240.217C810.729 254.638 820.924 260.389 828.604 264.688Z" fill="#233342"/>
<path opacity="0.5" d="M816.091 227.117C828.278 216.626 846.64 217.998 857.132 230.185C861.096 234.79 863.372 240.305 864.019 245.957C864.087 245.477 864.185 245.03 864.253 244.55C864.298 244.391 864.406 244.237 864.451 244.078C864.643 243.672 864.741 243.226 864.775 242.775C865.353 235.043 862.903 227.507 857.807 221.586C857.3 220.998 856.788 220.474 856.247 219.915C856.128 219.776 855.89 219.921 855.975 220.089C854.709 218.828 853.304 217.687 851.825 216.669C851.289 216.046 850.648 215.512 849.899 215.132C846.883 213.449 843.565 212.326 840.105 211.809C839.689 211.745 839.263 211.81 838.862 211.975C838.54 211.951 838.188 211.892 837.866 211.868C837.286 211.825 836.642 211.776 836.057 211.797C836.196 211.678 836.081 211.475 835.952 211.466C828.896 211.392 822.167 213.869 816.766 218.519C816.697 218.578 816.628 218.638 816.524 218.727C816.039 219.145 815.679 219.636 815.377 220.197C814.082 221.493 812.94 222.897 811.923 224.376C812.002 224.188 811.719 224.07 811.64 224.258C808.835 228.421 807.111 233.281 806.726 238.435C806.615 239.917 806.603 241.374 806.725 242.776C808.006 236.911 811.175 231.35 816.091 227.117Z" fill="black"/>
<path opacity="0.2" d="M650.381 696.86L650.358 280.953H738.364L747.683 172.563H532.557L541.876 280.953H629.883L629.86 696.86H650.381Z" fill="black"/>
</g>
<defs>
<linearGradient id="paint0_linear_32_137" x1="640" y1="0" x2="640" y2="796" gradientUnits="userSpaceOnUse">
<stop stop-color="#0052CC"/>
<stop offset="1" stop-color="#002C6E"/>
</linearGradient>
<linearGradient id="paint1_linear_32_137" x1="640" y1="0" x2="640" y2="796" gradientUnits="userSpaceOnUse">
<stop stop-color="#CA8443"/>
<stop offset="1" stop-color="#212121"/>
</linearGradient>
<clipPath id="clip0_32_137">
<rect width="1280" height="796" fill="white"/>
</clipPath>
</defs>
</svg>
