<svg width="1280" height="796" viewBox="0 0 1280 796" fill="none" xmlns="http://www.w3.org/2000/svg">
<g clip-path="url(#clip0_32_159)">
<path d="M1280 0H0V796H1280V0Z" fill="url(#paint0_linear_32_159)"/>
<path d="M966 397.5C966 577.821 819.821 724 639.5 724C459.179 724 313 577.821 313 397.5C313 217.179 459.179 71 639.5 71C819.821 71 966 217.179 966 397.5ZM345.65 397.5C345.65 559.789 477.211 691.35 639.5 691.35C801.789 691.35 933.35 559.789 933.35 397.5C933.35 235.211 801.789 103.65 639.5 103.65C477.211 103.65 345.65 235.211 345.65 397.5Z" fill="#F5F5F5"/>
<path d="M640 423C653.807 423 665 411.807 665 398C665 384.193 653.807 373 640 373C626.193 373 615 384.193 615 398C615 411.807 626.193 423 640 423Z" fill="#F5F5F5"/>
<path d="M1280 385H0V410H1280V385Z" fill="#F5F5F5"/>
<path d="M621.753 456.032C599.594 475.239 573.071 479.58 567.811 464.864C567.393 463.694 567.04 460.815 567.026 458.468L567 454.199L572.212 438.303L574.127 434.917C581.468 421.94 592.438 409.189 604.657 399.431C609.581 395.501 609.842 395.175 610.13 392.612C610.601 388.441 615 382.29 617.323 380.742C619.494 380.489 617.518 383.62 614.692 389.528C611.1 397.036 610.84 402.289 613.881 405.905C615.635 407.991 617.16 408.181 618.304 406.458C619.396 404.816 623.248 409.621 622.259 411.389C621.101 413.459 615.135 408.93 612.606 405.715C611.058 403.746 611.406 407.072 612.913 410.025C616.181 416.434 631.173 425.483 631.173 421.047C631.173 419.346 633.585 418.286 637.456 418.286C644.421 418.286 651.191 415.553 651.191 412.743C651.191 412.351 651.985 411.269 652.956 410.338C654.732 408.636 655.269 409.099 654.086 411.31C652.832 413.653 654.05 413.017 655.59 410.525C657.914 406.764 663.294 404.284 659.903 411.389C656.706 418.086 647.838 427.74 643.106 434.034L639.9 438.303L623.814 454.247L621.753 456.032Z" fill="#262626" fill-opacity="0.5"/>
<path d="M663.001 399.322C663.001 384.784 651.216 372.999 636.678 372.999C622.14 372.999 610.355 384.784 610.355 399.322C610.355 413.86 622.14 425.645 636.678 425.645C651.216 425.645 663.001 413.86 663.001 399.322Z" fill="white"/>
<path d="M620.859 378.281C619.091 381.818 618.097 385.809 618.097 390.032C618.097 404.57 629.882 416.355 644.42 416.355C650.357 416.355 655.835 414.389 660.238 411.073C655.921 419.712 646.992 425.645 636.678 425.645C622.14 425.645 610.355 413.86 610.355 399.322C610.355 390.722 614.48 383.085 620.859 378.281Z" fill="#212121"/>
<path fill-rule="evenodd" clip-rule="evenodd" d="M610.415 397.306C610.443 397.53 610.498 397.969 610.536 398.279C610.629 399.029 610.799 399.967 610.959 400.603C611.011 400.811 611.067 401.051 611.084 401.137C611.139 401.411 611.363 402.144 611.681 403.086L611.988 403.998L611.915 405.033C611.813 406.472 611.933 408.461 612.22 410.106C612.342 410.807 612.37 410.831 612.705 410.514C613.064 410.175 613.385 409.94 613.966 409.592C614.763 409.114 614.715 409.114 615.062 409.604C616.099 411.067 617.595 412.719 618.931 413.874C619.809 414.634 619.803 414.654 619.139 413.197C618.532 411.867 617.431 408.753 617.314 408.035C617.28 407.825 617.288 407.815 617.68 407.608C619.022 406.901 622.469 404.285 622.469 403.973C622.469 403.942 622.149 403.837 621.759 403.741C620.906 403.532 619.492 403.062 618.807 402.759C617.696 402.269 616.453 401.583 616.046 401.235C615.91 401.119 615.87 401.014 615.829 400.66C615.801 400.421 615.748 399.987 615.712 399.693C615.504 398.02 615.393 396.387 615.343 394.291C615.318 393.262 615.279 392.629 615.241 392.634C615.012 392.662 613.299 396.957 613.033 398.169C613.008 398.283 612.949 398.374 612.899 398.374C612.595 398.374 611.091 395.926 610.592 394.621C610.51 394.405 610.421 394.228 610.395 394.228C610.331 394.228 610.348 396.784 610.415 397.306ZM615.887 383.459C616.649 383.463 617.483 383.603 617.705 383.764C617.813 383.843 617.802 383.886 617.497 384.562C616.51 386.746 615.789 389.139 615.463 391.307C615.427 391.549 615.381 391.825 615.361 391.92C615.292 392.248 615.449 392.089 616.23 391.04C617.758 388.988 621.072 385.431 621.38 385.512C621.839 385.631 625.311 388.228 626.429 389.288C626.8 389.639 626.804 389.608 626.551 388.312C626.342 387.239 626.29 386.94 626.134 385.921C625.795 383.706 625.692 381.977 625.89 381.794C626.592 381.143 630.853 378.53 633.066 377.394C633.764 377.035 633.713 377.022 631.876 377.085C629.831 377.156 628.183 377.338 626.604 377.67C626.361 377.722 626.138 377.739 626.108 377.71C625.943 377.548 626.686 375.446 627.14 374.789C627.428 374.373 627.365 374.35 626.762 374.652C624.642 375.715 622.794 377.122 621.158 378.919C620.511 379.63 620.41 379.715 619.899 379.97C618.338 380.75 616.916 381.714 615.666 382.839C614.985 383.453 614.985 383.455 615.887 383.459ZM615.949 416.306C616.975 417.721 620.401 420.659 622.491 421.919C622.729 422.062 622.947 422.18 622.975 422.18C623.004 422.18 623.036 422.202 623.048 422.23C623.09 422.329 625.442 423.561 625.59 423.561C625.607 423.561 625.786 423.636 625.987 423.728C626.747 424.074 628.523 424.675 629.385 424.879C629.696 424.952 630.107 425.05 630.298 425.097C631.37 425.361 631.507 425.273 630.683 424.849C629.488 424.235 626.911 422.42 627.109 422.333C627.488 422.165 629.09 421.255 629.623 420.904C630.441 420.365 630.475 420.394 628.902 420.301C627.365 420.21 625.719 419.977 624.458 419.67C623.955 419.548 623.95 419.544 623.463 419.026C622.412 417.909 621.496 416.822 620.322 415.303L619.849 414.69L619.827 415.027C619.797 415.484 619.961 416.885 620.139 417.701C620.239 418.162 620.218 418.3 620.054 418.252C619.487 418.086 617.301 416.927 616.294 416.259C615.732 415.885 615.651 415.896 615.949 416.306ZM623.232 404.087C625.086 404.585 627.661 404.98 630.738 405.238L631.652 405.315L631.836 405.754C631.937 405.996 632.083 406.363 632.161 406.571C632.538 407.577 633.769 410.387 634.754 412.49C635.009 413.032 634.968 413.073 635.575 411.659C635.634 411.52 635.739 411.28 635.807 411.125C636.111 410.434 636.08 410.512 636.687 408.926C636.826 408.563 636.996 408.111 637.065 407.921C637.135 407.731 637.215 407.519 637.242 407.45C637.363 407.152 637.568 406.588 637.779 405.974C638.07 405.129 637.934 405.199 639.579 405.039C641.601 404.842 644.179 404.439 645.702 404.082C647.521 403.657 647.489 403.673 647.012 403.407C645.551 402.591 642.61 400.802 640.675 399.552C639.843 399.015 639.889 399.168 640.214 397.997C640.287 397.738 640.386 397.363 640.436 397.165C640.589 396.548 640.716 396.041 640.874 395.421C640.957 395.093 641.056 394.683 641.095 394.511C641.133 394.338 641.221 393.957 641.29 393.663C641.36 393.369 641.443 393.009 641.476 392.862C641.552 392.523 641.654 392.07 641.728 391.747C641.783 391.511 641.923 390.843 642.051 390.208C642.144 389.752 642.186 389.266 642.134 389.266C642.108 389.266 641.629 389.697 641.069 390.223C639.588 391.618 639.445 391.749 638.472 392.603C636.632 394.218 634.905 395.623 634.806 395.585C634.619 395.514 630.307 392.364 628.751 391.163C626.837 389.685 626.858 389.698 626.922 390.004C627.295 391.777 628.323 395.554 629.137 398.144C629.364 398.864 629.536 399.488 629.52 399.529C629.488 399.611 626.805 401.403 625.657 402.11C625.275 402.345 624.792 402.643 624.584 402.772C624.376 402.901 623.9 403.183 623.527 403.4C622.61 403.931 622.614 403.921 623.232 404.087ZM631.259 420.885C632.696 421.742 634.393 422.52 635.885 423.007C636.585 423.236 636.552 423.205 636.862 423.912C637.216 424.72 637.627 425.366 637.948 425.621C638.186 425.809 640.061 424.864 640.898 424.133C640.982 424.061 641.053 423.999 641.056 423.996C641.059 423.994 641.758 423.98 642.609 423.965C643.46 423.951 644.34 423.909 644.566 423.873C645.71 423.687 645.93 423.64 647.186 423.313C647.352 423.27 647.618 423.177 648.307 422.922C648.517 422.845 648.529 422.766 648.338 422.715C647.025 422.366 645.738 421.872 644.692 421.318C644.397 421.162 644.134 421.014 644.107 420.99C644.08 420.966 644.324 420.595 644.648 420.165C645.561 418.956 647.155 416.509 647.155 416.317C647.155 416.231 647.009 416.287 646.069 416.741C645.537 416.997 645.003 417.249 644.882 417.301C644.151 417.613 642.61 418.166 641.788 418.41C641.424 418.519 641.047 418.633 640.952 418.663C640.579 418.782 637.829 416.284 635.94 414.111C635.701 413.837 635.4 413.497 635.271 413.358L635.036 413.103L635.034 413.713C635.034 414.049 635.06 414.6 635.093 414.938C635.126 415.276 635.184 415.949 635.222 416.432C635.26 416.916 635.319 417.509 635.352 417.751C635.5 418.813 635.551 419.15 635.601 419.415C635.668 419.765 635.619 419.828 635.237 419.876C635.073 419.897 634.512 419.97 633.991 420.038C633.47 420.107 632.504 420.209 631.844 420.265C631.185 420.321 630.623 420.388 630.597 420.414C630.57 420.44 630.868 420.652 631.259 420.885ZM635.24 377.609C636.659 378.16 639.191 379.227 640.21 379.704C641.663 380.384 642.218 380.664 642.296 380.758C642.586 381.105 642.623 386.829 642.347 388.473C642.313 388.677 642.308 388.866 642.336 388.894C642.487 389.043 645.932 385.771 647.086 384.382C647.409 383.993 647.707 383.675 647.748 383.675C647.924 383.675 650.844 385.544 652.363 386.627C652.606 386.801 652.87 386.989 652.949 387.045C653.175 387.206 653.191 387.102 653.033 386.489C652.502 384.425 651.424 382.018 650.33 380.457C650.216 380.293 650.122 380.114 650.122 380.058C650.122 379.823 651.198 378.669 651.84 378.215C652.206 377.956 652.2 377.946 651.48 377.606C650.326 377.063 647.731 376.39 646.781 376.389C646.546 376.389 646.523 376.377 645.758 375.849C644.415 374.925 642.977 374.215 641.062 373.532C640.489 373.328 639.173 373.002 638.916 373.001L638.663 373L638.947 373.229C639.731 373.862 640.406 374.708 640.904 375.682C641.208 376.276 641.245 376.242 640.21 376.323C638.902 376.426 637.894 376.516 637.337 376.58C635.153 376.833 634.092 376.986 634.018 377.06C633.988 377.09 634.538 377.336 635.24 377.609ZM647.589 416.002C648.147 415.896 650.806 414.752 652.533 413.875C653.216 413.528 653.814 413.258 653.861 413.276C653.963 413.315 654.311 414.4 654.484 415.219C654.65 415.999 654.707 417.237 654.609 417.905C654.502 418.633 654.568 418.649 655.073 418.023C656.11 416.736 656.818 415.266 657.567 412.852C657.657 412.56 657.993 411.142 658.083 410.669C658.159 410.269 658.185 410.226 658.515 409.937C660.424 408.272 661.725 406.474 662.365 404.619C662.484 404.275 662.535 403.964 662.473 403.964C662.459 403.964 662.296 404.034 662.109 404.119C661.509 404.392 660.069 404.681 659.056 404.731L658.677 404.749L658.636 403.242C658.594 401.662 658.48 399.775 658.401 399.347L658.355 399.096L658.117 399.599C657.986 399.875 657.775 400.327 657.647 400.603C657.302 401.348 656.384 403.154 655.924 403.993L655.52 404.728L654.832 404.69C653.249 404.602 651.117 404.315 648.291 403.811C647.656 403.697 647.66 403.698 647.66 403.767C647.66 403.797 647.948 404.143 648.299 404.536C649.733 406.14 651.619 408.659 652.128 409.651L652.258 409.906L651.458 411.006C650.321 412.572 649.301 413.851 648.108 415.207C647.85 415.501 647.579 415.809 647.507 415.892L647.376 416.042L647.589 416.002ZM653.861 387.727C655.137 388.617 656.914 390.127 658.137 391.362L658.67 391.9L658.725 392.86C658.785 393.895 658.705 396.011 658.547 397.636C658.417 398.963 658.4 398.909 658.803 398.483C659.503 397.744 660.582 396.269 660.949 395.549C661.037 395.375 661.132 395.233 661.158 395.233C661.355 395.233 662.409 397.423 662.753 398.546C662.891 398.995 663.003 399.137 663 398.861C662.998 398.592 662.816 396.08 662.78 395.83C662.694 395.214 662.609 394.68 662.56 394.448C662.531 394.31 662.472 394.027 662.429 393.82C661.576 389.681 659.542 385.521 656.764 382.231C655.895 381.202 655.653 381.043 656.093 381.791C656.285 382.116 656.617 382.795 656.972 383.582C657.106 383.882 657.426 384.787 657.604 385.371C657.768 385.915 658.076 387.15 658.077 387.272C658.077 387.406 658.09 387.406 657.264 387.277C656.103 387.095 653.4 387.139 653.408 387.338C653.409 387.379 653.613 387.554 653.861 387.727Z" fill="#262626" fill-opacity="0.5"/>
<path d="M653.376 387.65C653.371 387.451 656.072 387.407 657.233 387.589C658.058 387.718 658.046 387.718 658.045 387.584C658.045 387.463 657.737 386.227 657.573 385.683C657.395 385.099 657.075 384.193 656.94 383.893C656.586 383.107 656.253 382.428 656.062 382.103C655.889 381.81 655.823 381.659 655.857 381.642C659.589 385.626 662.096 390.77 662.779 396.475C662.835 397.139 662.935 398.55 662.96 399.031C662.962 399.107 662.963 399.184 662.964 399.261C662.942 399.407 662.842 399.247 662.722 398.858C662.378 397.735 661.324 395.547 661.127 395.546C661.101 395.546 661.006 395.687 660.917 395.861C660.551 396.581 659.472 398.057 658.772 398.796C658.369 399.221 658.385 399.275 658.515 397.948C658.674 396.323 658.753 394.208 658.694 393.173L658.639 392.213L658.106 391.674C656.883 390.439 655.105 388.928 653.83 388.039C653.582 387.866 653.378 387.691 653.376 387.65ZM647.476 416.204C647.548 416.121 647.818 415.813 648.077 415.519C649.269 414.163 650.29 412.884 651.427 411.318L652.227 410.218L652.096 409.964C651.588 408.972 649.702 406.452 648.268 404.848C647.916 404.455 647.628 404.109 647.628 404.079C647.628 404.01 647.626 404.01 648.26 404.123C651.086 404.627 653.218 404.914 654.801 405.002L655.489 405.04L655.892 404.304C656.352 403.466 657.271 401.66 657.616 400.916C657.744 400.64 657.955 400.187 658.085 399.911L658.324 399.408L658.371 399.659C658.449 400.087 658.563 401.974 658.605 403.553L658.646 405.061L659.025 405.043C660.038 404.993 661.477 404.705 662.078 404.431C662.265 404.346 662.429 404.276 662.442 404.276C662.504 404.278 662.452 404.588 662.333 404.931C661.694 406.786 660.393 408.584 658.484 410.25C658.154 410.538 658.127 410.581 658.051 410.98C657.962 411.447 657.634 412.833 657.539 413.151C656.488 413.758 655.392 414.293 654.256 414.753C654.089 414.153 653.901 413.616 653.83 413.589C653.781 413.572 653.185 413.841 652.502 414.187C650.775 415.064 648.117 416.207 647.558 416.313L647.344 416.354L647.476 416.204ZM633.987 377.372C634.062 377.298 635.124 377.145 637.306 376.892C637.862 376.828 638.872 376.738 640.179 376.636C641.213 376.554 641.176 376.588 640.873 375.994C640.375 375.02 639.7 374.173 638.917 373.541L638.733 373.394C639.109 373.424 639.483 373.462 639.854 373.508C640.283 373.614 640.748 373.744 641.031 373.845C642.946 374.527 644.384 375.236 645.726 376.161C646.491 376.688 646.515 376.7 646.75 376.701C647.7 376.702 650.295 377.375 651.449 377.919C651.547 377.965 651.631 378.009 651.704 378.045C651.818 378.125 651.933 378.206 652.046 378.288C652.051 378.352 651.964 378.418 651.809 378.527C651.167 378.981 650.091 380.135 650.091 380.37C650.091 380.426 650.185 380.606 650.299 380.769C651.392 382.331 652.471 384.737 653.002 386.801C653.16 387.414 653.144 387.518 652.918 387.357C652.839 387.301 652.576 387.113 652.333 386.939C650.814 385.856 647.893 383.988 647.717 383.988C647.676 383.988 647.378 384.305 647.055 384.694C645.901 386.083 642.456 389.355 642.305 389.206C642.277 389.177 642.282 388.988 642.316 388.785C642.592 387.14 642.554 381.417 642.264 381.07C642.186 380.976 641.631 380.695 640.179 380.015C639.161 379.539 636.629 378.471 635.209 377.921C634.508 377.648 633.957 377.401 633.987 377.372ZM623.202 404.399C622.583 404.233 622.578 404.243 623.496 403.712C623.869 403.496 624.345 403.213 624.553 403.084C624.762 402.955 625.245 402.657 625.626 402.422C626.774 401.715 629.455 399.924 629.489 399.842C629.505 399.8 629.333 399.176 629.106 398.456C628.292 395.866 627.264 392.089 626.891 390.316C626.827 390.01 626.806 389.997 628.719 391.474C630.275 392.675 634.588 395.826 634.775 395.897C634.874 395.935 636.601 394.53 638.441 392.915C639.414 392.061 639.557 391.931 641.039 390.536C641.597 390.011 642.075 389.58 642.103 389.578C642.155 389.578 642.113 390.064 642.02 390.52C641.892 391.155 641.752 391.823 641.698 392.059C641.624 392.382 641.52 392.835 641.445 393.174C641.412 393.32 641.329 393.682 641.259 393.975C641.19 394.269 641.101 394.65 641.063 394.823C641.024 394.996 640.925 395.405 640.842 395.733C640.685 396.353 640.558 396.86 640.405 397.476C640.355 397.675 640.255 398.05 640.183 398.309C639.857 399.48 639.812 399.327 640.644 399.864C642.579 401.114 645.519 402.903 646.98 403.719C647.458 403.985 647.49 403.969 645.671 404.394C644.148 404.751 641.57 405.154 639.547 405.351C637.903 405.512 638.039 405.441 637.749 406.286C637.537 406.9 637.332 407.465 637.211 407.762C637.184 407.832 637.104 408.044 637.035 408.233C636.965 408.423 636.795 408.875 636.656 409.238C636.049 410.824 636.079 410.746 635.776 411.437C635.708 411.593 635.603 411.832 635.543 411.97C634.937 413.385 634.977 413.344 634.723 412.803C633.738 410.699 632.506 407.889 632.129 406.883C632.052 406.675 631.905 406.308 631.804 406.066L631.621 405.627L630.707 405.55C627.63 405.291 625.055 404.897 623.202 404.399ZM635.004 413.415L635.24 413.67C635.369 413.81 635.671 414.149 635.91 414.424C636.25 414.815 636.618 415.218 636.996 415.614C636.333 415.421 635.681 415.201 635.042 414.958C635.02 414.646 635.003 414.275 635.003 414.025L635.004 413.415ZM618.097 389.047C618.25 385.905 618.953 382.909 620.113 380.151C620.433 379.972 620.6 379.811 621.127 379.231C622.165 378.091 623.289 377.109 624.512 376.271C625.354 375.833 626.223 375.439 627.115 375.093C627.113 375.095 627.111 375.098 627.109 375.101C626.655 375.757 625.912 377.861 626.077 378.022C626.107 378.052 626.33 378.033 626.573 377.982C628.152 377.65 629.8 377.467 631.845 377.397C633.682 377.334 633.733 377.347 633.035 377.706C630.823 378.842 626.562 381.455 625.859 382.106C625.662 382.289 625.763 384.018 626.102 386.233C626.258 387.251 626.311 387.551 626.52 388.624C626.772 389.92 626.768 389.95 626.398 389.599C625.28 388.539 621.808 385.943 621.349 385.824C621.141 385.77 619.569 387.37 618.097 389.047ZM621.95 404.112C622.231 404.189 622.436 404.259 622.438 404.285C622.438 404.331 622.361 404.426 622.229 404.558C622.134 404.411 622.042 404.262 621.95 404.112Z" fill="#044B3C"/>
<path d="M569.762 445.775H632.361L623.813 454.247L621.753 456.032C619.575 457.92 617.354 459.662 615.116 461.258H567.175C567.086 460.333 567.032 459.362 567.026 458.468L567 454.199L569.762 445.775Z" fill="#212121"/>
<path d="M1280 0H0V796H1280V0Z" fill="url(#paint1_linear_32_159)"/>
<path d="M1165 0C1165 65.6609 1151.42 130.679 1125.04 191.342C1098.65 252.005 1059.98 307.124 1011.23 353.553C962.48 399.983 904.605 436.812 840.909 461.94C777.213 487.067 708.944 500 640 500C571.056 500 502.787 487.067 439.091 461.94C375.395 436.812 317.52 399.983 268.769 353.553C220.018 307.124 181.347 252.004 154.963 191.342C128.58 130.679 115 65.6609 115 -3.05176e-05H141.25C141.25 62.3779 154.151 124.145 179.215 181.775C204.28 239.404 241.017 291.768 287.33 335.876C333.644 379.984 388.625 414.972 449.137 438.843C509.648 462.714 574.503 475 640 475C705.497 475 770.352 462.714 830.863 438.843C891.375 414.972 946.356 379.984 992.669 335.876C1038.98 291.768 1075.72 239.404 1100.78 181.775C1125.85 124.145 1138.75 62.3779 1138.75 0H1165Z" fill="#F5F5F5"/>
<path d="M640 512C653.807 512 665 500.807 665 487C665 473.193 653.807 462 640 462C626.193 462 615 473.193 615 487C615 500.807 626.193 512 640 512Z" fill="#F5F5F5"/>
<path d="M606.753 551.033C584.594 570.239 558.071 574.58 552.811 559.865C552.393 558.694 552.04 555.815 552.026 553.468L552 549.199L557.212 533.303L559.127 529.917C566.468 516.94 577.438 504.189 589.657 494.431C594.581 490.501 594.842 490.175 595.13 487.612C595.601 483.441 600 477.29 602.323 475.742C604.494 475.49 602.518 478.621 599.692 484.528C596.1 492.036 595.84 497.29 598.881 500.905C600.635 502.991 602.16 503.181 603.304 501.458C604.396 499.817 608.248 504.621 607.259 506.389C606.101 508.46 600.135 503.93 597.606 500.715C596.058 498.746 596.406 502.073 597.913 505.025C601.181 511.434 616.173 520.483 616.173 516.047C616.173 514.347 618.585 513.286 622.456 513.286C629.421 513.286 636.191 510.553 636.191 507.743C636.191 507.351 636.985 506.269 637.956 505.338C639.732 503.636 640.269 504.099 639.086 506.31C637.832 508.653 639.05 508.017 640.59 505.525C642.914 501.764 648.294 499.284 644.903 506.389C641.706 513.086 632.838 522.74 628.106 529.035L624.9 533.303L608.814 549.247L606.753 551.033Z" fill="#262626" fill-opacity="0.5"/>
<path d="M648.001 494.323C648.001 479.785 636.216 468 621.678 468C607.14 468 595.355 479.785 595.355 494.323C595.355 508.861 607.14 520.646 621.678 520.646C636.216 520.646 648.001 508.861 648.001 494.323Z" fill="white"/>
<path d="M605.859 473.281C604.091 476.818 603.097 480.809 603.097 485.032C603.097 499.57 614.882 511.355 629.42 511.355C635.357 511.355 640.835 509.389 645.238 506.073C640.921 514.712 631.992 520.645 621.678 520.645C607.14 520.645 595.355 508.86 595.355 494.323C595.355 485.722 599.48 478.085 605.859 473.281Z" fill="#212121"/>
<path fill-rule="evenodd" clip-rule="evenodd" d="M595.415 492.306C595.443 492.531 595.498 492.969 595.536 493.28C595.629 494.03 595.799 494.967 595.959 495.604C596.011 495.811 596.067 496.051 596.084 496.137C596.139 496.411 596.363 497.144 596.681 498.086L596.988 498.998L596.915 500.033C596.813 501.472 596.933 503.461 597.22 505.106C597.342 505.807 597.37 505.831 597.705 505.515C598.064 505.175 598.385 504.94 598.966 504.593C599.763 504.115 599.715 504.114 600.062 504.604C601.099 506.068 602.595 507.719 603.931 508.874C604.809 509.634 604.803 509.654 604.139 508.198C603.532 506.867 602.431 503.753 602.314 503.035C602.28 502.825 602.288 502.815 602.68 502.609C604.022 501.901 607.469 499.285 607.469 498.973C607.469 498.942 607.149 498.837 606.759 498.741C605.906 498.532 604.492 498.062 603.807 497.759C602.696 497.27 601.453 496.583 601.046 496.235C600.91 496.119 600.87 496.014 600.829 495.66C600.801 495.422 600.748 494.987 600.712 494.693C600.504 493.02 600.393 491.387 600.343 489.291C600.318 488.262 600.279 487.629 600.241 487.634C600.012 487.662 598.299 491.958 598.033 493.17C598.008 493.283 597.949 493.374 597.899 493.374C597.595 493.374 596.091 490.926 595.592 489.621C595.51 489.405 595.421 489.228 595.395 489.228C595.331 489.228 595.348 491.784 595.415 492.306ZM600.887 478.459C601.649 478.463 602.483 478.603 602.705 478.764C602.813 478.843 602.802 478.886 602.497 479.562C601.51 481.746 600.789 484.139 600.463 486.308C600.427 486.549 600.381 486.825 600.361 486.92C600.292 487.248 600.449 487.089 601.23 486.04C602.758 483.988 606.072 480.431 606.38 480.512C606.839 480.631 610.311 483.228 611.429 484.288C611.8 484.639 611.804 484.608 611.551 483.312C611.342 482.239 611.29 481.94 611.134 480.921C610.795 478.706 610.692 476.977 610.89 476.794C611.592 476.143 615.853 473.53 618.066 472.394C618.764 472.035 618.713 472.022 616.876 472.085C614.831 472.156 613.183 472.339 611.604 472.671C611.361 472.722 611.138 472.74 611.108 472.71C610.943 472.549 611.686 470.446 612.14 469.79C612.428 469.373 612.365 469.35 611.762 469.652C609.642 470.716 607.794 472.122 606.158 473.92C605.511 474.63 605.41 474.715 604.899 474.97C603.338 475.75 601.916 476.714 600.666 477.839C599.985 478.453 599.985 478.455 600.887 478.459ZM600.949 511.307C601.975 512.721 605.401 515.659 607.491 516.919C607.729 517.062 607.947 517.18 607.975 517.18C608.004 517.18 608.036 517.202 608.048 517.23C608.09 517.329 610.442 518.562 610.59 518.562C610.607 518.562 610.786 518.636 610.987 518.728C611.747 519.074 613.523 519.675 614.385 519.879C614.696 519.952 615.107 520.051 615.298 520.098C616.37 520.362 616.507 520.273 615.683 519.849C614.488 519.235 611.911 517.42 612.109 517.333C612.488 517.165 614.09 516.255 614.623 515.904C615.441 515.365 615.475 515.394 613.902 515.301C612.365 515.211 610.719 514.977 609.458 514.67C608.955 514.548 608.95 514.544 608.463 514.026C607.412 512.909 606.496 511.822 605.322 510.303L604.849 509.69L604.827 510.027C604.797 510.484 604.961 511.885 605.139 512.701C605.239 513.163 605.218 513.3 605.054 513.252C604.487 513.086 602.301 511.927 601.294 511.259C600.732 510.885 600.651 510.897 600.949 511.307ZM608.232 499.087C610.086 499.585 612.661 499.98 615.738 500.238L616.652 500.315L616.836 500.754C616.937 500.996 617.083 501.363 617.161 501.571C617.538 502.577 618.769 505.387 619.754 507.49C620.009 508.032 619.968 508.073 620.575 506.659C620.634 506.521 620.739 506.28 620.807 506.125C621.111 505.434 621.08 505.512 621.687 503.926C621.826 503.564 621.996 503.111 622.065 502.921C622.135 502.731 622.215 502.519 622.242 502.45C622.363 502.152 622.568 501.588 622.779 500.974C623.07 500.129 622.934 500.199 624.579 500.039C626.601 499.842 629.179 499.439 630.702 499.082C632.521 498.657 632.489 498.673 632.012 498.407C630.551 497.591 627.61 495.802 625.675 494.552C624.843 494.015 624.889 494.168 625.214 492.997C625.287 492.738 625.386 492.363 625.436 492.165C625.589 491.548 625.716 491.042 625.874 490.422C625.957 490.094 626.056 489.683 626.095 489.511C626.133 489.338 626.221 488.957 626.29 488.663C626.36 488.369 626.443 488.009 626.476 487.862C626.552 487.523 626.654 487.07 626.728 486.747C626.783 486.511 626.923 485.843 627.051 485.208C627.144 484.752 627.186 484.266 627.134 484.266C627.108 484.266 626.629 484.697 626.069 485.224C624.588 486.618 624.445 486.749 623.472 487.603C621.632 489.218 619.905 490.623 619.806 490.585C619.619 490.514 615.307 487.364 613.751 486.163C611.837 484.685 611.858 484.698 611.922 485.004C612.295 486.777 613.323 490.554 614.137 493.144C614.364 493.864 614.536 494.488 614.52 494.529C614.488 494.611 611.805 496.403 610.657 497.11C610.275 497.345 609.792 497.643 609.584 497.772C609.376 497.901 608.9 498.184 608.527 498.4C607.61 498.931 607.614 498.922 608.232 499.087ZM616.259 515.885C617.696 516.742 619.393 517.52 620.885 518.007C621.585 518.236 621.552 518.205 621.862 518.912C622.216 519.72 622.627 520.366 622.948 520.621C623.186 520.809 625.061 519.864 625.898 519.134C625.982 519.061 626.053 518.999 626.056 518.996C626.059 518.994 626.758 518.98 627.609 518.965C628.46 518.951 629.34 518.909 629.566 518.873C630.71 518.687 630.93 518.64 632.186 518.313C632.352 518.27 632.618 518.177 633.307 517.923C633.517 517.845 633.529 517.766 633.338 517.716C632.025 517.366 630.738 516.872 629.692 516.318C629.397 516.162 629.134 516.014 629.107 515.99C629.08 515.966 629.324 515.595 629.648 515.166C630.561 513.956 632.155 511.509 632.155 511.317C632.155 511.231 632.009 511.288 631.069 511.741C630.537 511.997 630.003 512.249 629.882 512.301C629.151 512.614 627.61 513.166 626.788 513.411C626.424 513.519 626.047 513.633 625.952 513.663C625.579 513.782 622.829 511.284 620.94 509.111C620.701 508.837 620.4 508.498 620.271 508.358L620.036 508.103L620.034 508.713C620.034 509.049 620.06 509.6 620.093 509.938C620.126 510.276 620.184 510.949 620.222 511.432C620.26 511.916 620.319 512.509 620.352 512.751C620.5 513.813 620.551 514.151 620.601 514.415C620.668 514.766 620.619 514.828 620.237 514.876C620.073 514.897 619.512 514.97 618.991 515.039C618.47 515.107 617.504 515.209 616.844 515.265C616.185 515.321 615.623 515.388 615.597 515.414C615.57 515.44 615.868 515.652 616.259 515.885ZM620.24 472.609C621.659 473.16 624.191 474.227 625.21 474.704C626.663 475.384 627.218 475.664 627.296 475.758C627.586 476.105 627.623 481.829 627.347 483.473C627.313 483.677 627.308 483.866 627.336 483.894C627.487 484.043 630.932 480.771 632.086 479.382C632.409 478.994 632.707 478.676 632.748 478.676C632.924 478.676 635.844 480.544 637.363 481.628C637.606 481.801 637.87 481.989 637.949 482.045C638.175 482.206 638.191 482.102 638.033 481.489C637.502 479.425 636.424 477.019 635.33 475.457C635.216 475.294 635.122 475.114 635.122 475.058C635.122 474.823 636.198 473.669 636.84 473.215C637.206 472.956 637.2 472.946 636.48 472.606C635.326 472.063 632.731 471.39 631.781 471.389C631.546 471.389 631.523 471.377 630.758 470.849C629.415 469.925 627.977 469.215 626.062 468.532C625.489 468.328 624.173 468.002 623.916 468.001L623.663 468L623.947 468.229C624.731 468.862 625.406 469.708 625.904 470.682C626.208 471.276 626.245 471.242 625.21 471.324C623.902 471.426 622.894 471.516 622.337 471.58C620.153 471.833 619.092 471.986 619.018 472.06C618.988 472.09 619.538 472.337 620.24 472.609ZM632.589 511.002C633.147 510.896 635.806 509.752 637.533 508.875C638.216 508.528 638.814 508.258 638.861 508.276C638.963 508.315 639.311 509.4 639.484 510.22C639.65 510.999 639.707 512.237 639.609 512.905C639.502 513.633 639.568 513.649 640.073 513.023C641.11 511.736 641.818 510.267 642.567 507.852C642.657 507.56 642.993 506.142 643.083 505.669C643.159 505.269 643.185 505.226 643.515 504.937C645.424 503.272 646.725 501.474 647.365 499.619C647.484 499.275 647.535 498.964 647.473 498.964C647.459 498.964 647.296 499.034 647.109 499.119C646.509 499.392 645.069 499.681 644.056 499.731L643.677 499.749L643.636 498.242C643.594 496.662 643.48 494.775 643.401 494.347L643.355 494.096L643.117 494.599C642.986 494.875 642.775 495.327 642.647 495.604C642.302 496.348 641.384 498.154 640.924 498.993L640.52 499.728L639.832 499.69C638.249 499.602 636.117 499.315 633.291 498.811C632.656 498.698 632.66 498.698 632.66 498.767C632.66 498.797 632.948 499.143 633.299 499.537C634.733 501.14 636.619 503.66 637.128 504.652L637.258 504.906L636.458 506.006C635.321 507.572 634.301 508.851 633.108 510.208C632.85 510.501 632.579 510.809 632.507 510.892L632.376 511.042L632.589 511.002ZM638.861 482.727C640.137 483.617 641.914 485.127 643.137 486.362L643.67 486.9L643.725 487.86C643.785 488.895 643.705 491.011 643.547 492.636C643.417 493.964 643.4 493.909 643.803 493.483C644.503 492.745 645.582 491.269 645.949 490.549C646.037 490.375 646.132 490.233 646.158 490.233C646.355 490.233 647.409 492.423 647.753 493.547C647.891 493.995 648.003 494.138 648 493.861C647.998 493.592 647.816 491.08 647.78 490.83C647.694 490.215 647.609 489.68 647.56 489.448C647.531 489.31 647.472 489.027 647.429 488.82C646.576 484.681 644.542 480.521 641.764 477.231C640.895 476.202 640.653 476.043 641.093 476.791C641.285 477.116 641.617 477.795 641.972 478.582C642.106 478.882 642.426 479.788 642.604 480.372C642.768 480.915 643.076 482.151 643.077 482.272C643.077 482.406 643.09 482.406 642.264 482.277C641.103 482.095 638.4 482.139 638.408 482.338C638.409 482.38 638.613 482.554 638.861 482.727Z" fill="#262626" fill-opacity="0.5"/>
<path d="M638.376 482.65C638.371 482.451 641.072 482.407 642.233 482.589C643.058 482.718 643.046 482.718 643.045 482.584C643.045 482.463 642.737 481.227 642.573 480.684C642.395 480.1 642.075 479.194 641.94 478.893C641.586 478.107 641.253 477.428 641.062 477.103C640.889 476.81 640.823 476.659 640.857 476.642C644.589 480.626 647.096 485.77 647.779 491.475C647.835 492.14 647.935 493.55 647.96 494.031C647.962 494.108 647.963 494.184 647.964 494.261C647.942 494.407 647.842 494.248 647.722 493.858C647.378 492.735 646.324 490.547 646.127 490.546C646.101 490.546 646.006 490.687 645.917 490.861C645.551 491.581 644.472 493.057 643.772 493.796C643.369 494.221 643.385 494.275 643.515 492.948C643.674 491.323 643.753 489.208 643.694 488.173L643.639 487.213L643.106 486.674C641.883 485.439 640.105 483.929 638.83 483.039C638.582 482.866 638.378 482.691 638.376 482.65ZM632.476 511.204C632.548 511.121 632.818 510.813 633.077 510.519C634.269 509.163 635.29 507.884 636.427 506.318L637.227 505.218L637.096 504.964C636.588 503.972 634.702 501.452 633.268 499.849C632.916 499.455 632.628 499.109 632.628 499.079C632.628 499.01 632.626 499.01 633.26 499.123C636.086 499.627 638.218 499.914 639.801 500.002L640.489 500.04L640.892 499.305C641.352 498.466 642.271 496.66 642.616 495.916C642.744 495.64 642.955 495.187 643.085 494.911L643.324 494.408L643.371 494.659C643.449 495.087 643.563 496.974 643.605 498.554L643.646 500.061L644.025 500.043C645.038 499.993 646.477 499.705 647.078 499.432C647.265 499.346 647.429 499.276 647.442 499.276C647.504 499.278 647.452 499.588 647.333 499.932C646.694 501.786 645.393 503.585 643.484 505.25C643.154 505.538 643.127 505.581 643.051 505.98C642.962 506.447 642.634 507.833 642.539 508.151C641.488 508.758 640.392 509.293 639.256 509.753C639.089 509.153 638.901 508.616 638.83 508.589C638.781 508.572 638.185 508.841 637.502 509.187C635.775 510.064 633.117 511.207 632.558 511.313L632.344 511.354L632.476 511.204ZM618.987 472.372C619.062 472.298 620.124 472.145 622.306 471.892C622.862 471.828 623.872 471.738 625.179 471.636C626.213 471.555 626.176 471.588 625.873 470.994C625.375 470.02 624.7 469.174 623.917 468.541L623.733 468.394C624.109 468.424 624.483 468.463 624.854 468.508C625.283 468.614 625.748 468.744 626.031 468.845C627.946 469.528 629.384 470.237 630.726 471.161C631.491 471.688 631.515 471.701 631.75 471.701C632.7 471.702 635.295 472.375 636.449 472.919C636.547 472.965 636.631 473.009 636.704 473.045C636.818 473.125 636.933 473.206 637.046 473.288C637.051 473.352 636.964 473.418 636.809 473.527C636.167 473.981 635.091 475.135 635.091 475.37C635.091 475.426 635.185 475.606 635.299 475.769C636.392 477.331 637.471 479.737 638.002 481.801C638.16 482.414 638.144 482.518 637.918 482.357C637.839 482.301 637.576 482.113 637.333 481.939C635.814 480.856 632.893 478.988 632.717 478.988C632.676 478.988 632.378 479.306 632.055 479.694C630.901 481.083 627.456 484.355 627.305 484.206C627.277 484.177 627.282 483.988 627.316 483.785C627.592 482.14 627.554 476.418 627.264 476.07C627.186 475.976 626.631 475.695 625.179 475.016C624.161 474.539 621.629 473.472 620.209 472.921C619.508 472.648 618.957 472.401 618.987 472.372ZM608.202 499.399C607.583 499.233 607.578 499.243 608.496 498.712C608.869 498.496 609.345 498.213 609.553 498.084C609.762 497.955 610.245 497.657 610.626 497.422C611.774 496.715 614.455 494.925 614.489 494.842C614.505 494.8 614.333 494.176 614.106 493.456C613.292 490.866 612.264 487.089 611.891 485.316C611.827 485.01 611.806 484.997 613.719 486.475C615.275 487.676 619.588 490.826 619.775 490.897C619.874 490.935 621.601 489.53 623.441 487.915C624.414 487.061 624.557 486.931 626.039 485.536C626.597 485.011 627.075 484.58 627.103 484.578C627.155 484.578 627.113 485.064 627.02 485.52C626.892 486.155 626.752 486.823 626.698 487.059C626.624 487.382 626.52 487.835 626.445 488.174C626.412 488.321 626.329 488.682 626.259 488.975C626.19 489.269 626.101 489.65 626.063 489.823C626.024 489.996 625.925 490.405 625.842 490.733C625.685 491.353 625.558 491.86 625.405 492.476C625.355 492.675 625.255 493.05 625.183 493.309C624.857 494.48 624.812 494.327 625.644 494.864C627.579 496.114 630.519 497.903 631.98 498.719C632.458 498.985 632.49 498.969 630.671 499.394C629.148 499.751 626.57 500.154 624.547 500.351C622.903 500.512 623.039 500.441 622.749 501.286C622.537 501.9 622.332 502.465 622.211 502.763C622.184 502.832 622.104 503.044 622.035 503.233C621.965 503.423 621.795 503.875 621.656 504.238C621.049 505.824 621.079 505.746 620.776 506.437C620.708 506.593 620.603 506.833 620.543 506.971C619.937 508.385 619.977 508.344 619.723 507.803C618.738 505.699 617.506 502.889 617.129 501.883C617.052 501.675 616.905 501.308 616.804 501.066L616.621 500.627L615.707 500.55C612.63 500.292 610.055 499.897 608.202 499.399ZM620.004 508.415L620.24 508.67C620.369 508.81 620.671 509.149 620.91 509.424C621.25 509.816 621.618 510.218 621.996 510.614C621.333 510.421 620.681 510.201 620.042 509.958C620.02 509.646 620.003 509.276 620.003 509.025L620.004 508.415ZM603.097 484.047C603.25 480.905 603.953 477.909 605.113 475.151C605.433 474.972 605.6 474.811 606.127 474.231C607.165 473.091 608.289 472.109 609.512 471.271C610.354 470.833 611.223 470.439 612.115 470.093C612.113 470.096 612.111 470.099 612.109 470.101C611.655 470.758 610.912 472.861 611.077 473.022C611.107 473.052 611.33 473.033 611.573 472.982C613.152 472.65 614.8 472.468 616.845 472.397C618.682 472.334 618.733 472.347 618.035 472.706C615.823 473.842 611.562 476.455 610.859 477.106C610.662 477.289 610.763 479.018 611.102 481.233C611.258 482.252 611.311 482.551 611.52 483.624C611.772 484.92 611.768 484.951 611.398 484.6C610.28 483.539 606.808 480.943 606.349 480.824C606.141 480.77 604.569 482.37 603.097 484.047ZM606.95 499.112C607.231 499.189 607.436 499.259 607.438 499.285C607.438 499.331 607.361 499.426 607.229 499.559C607.134 499.411 607.042 499.262 606.95 499.112Z" fill="#044B3C"/>
<path d="M554.762 540.775H617.361L608.813 549.247L606.753 551.033C604.575 552.92 602.354 554.662 600.116 556.258H552.175C552.086 555.334 552.032 554.362 552.026 553.468L552 549.2L554.762 540.775Z" fill="#212121"/>
</g>
<defs>
<linearGradient id="paint0_linear_32_159" x1="640" y1="0" x2="640" y2="796" gradientUnits="userSpaceOnUse">
<stop stop-color="#2ECC71"/>
<stop offset="1" stop-color="#008459"/>
</linearGradient>
<linearGradient id="paint1_linear_32_159" x1="640" y1="0" x2="640" y2="796" gradientUnits="userSpaceOnUse">
<stop stop-color="#0372BC"/>
<stop offset="1" stop-color="#0052CC"/>
</linearGradient>
<clipPath id="clip0_32_159">
<rect width="1280" height="796" fill="white"/>
</clipPath>
</defs>
</svg>
