<svg width="1280" height="796" viewBox="0 0 1280 796" fill="none" xmlns="http://www.w3.org/2000/svg">
<g clip-path="url(#clip0_32_179)">
<path d="M1280 0H0V796H1280V0Z" fill="url(#paint0_linear_32_179)"/>
<path d="M966 397.5C966 577.821 819.821 724 639.5 724C459.179 724 313 577.821 313 397.5C313 217.179 459.179 71 639.5 71C819.821 71 966 217.179 966 397.5ZM345.65 397.5C345.65 559.789 477.211 691.35 639.5 691.35C801.789 691.35 933.35 559.789 933.35 397.5C933.35 235.211 801.789 103.65 639.5 103.65C477.211 103.65 345.65 235.211 345.65 397.5Z" fill="#F5F5F5"/>
<path d="M640 423C653.807 423 665 411.807 665 398C665 384.193 653.807 373 640 373C626.193 373 615 384.193 615 398C615 411.807 626.193 423 640 423Z" fill="#F5F5F5"/>
<path d="M1280 385H0V410H1280V385Z" fill="#F5F5F5"/>
<path d="M621.753 456.032C599.594 475.239 573.071 479.58 567.811 464.864C567.393 463.694 567.04 460.815 567.026 458.468L567 454.199L572.212 438.303L574.127 434.917C581.468 421.94 592.438 409.189 604.657 399.431C609.581 395.501 609.842 395.175 610.13 392.612C610.601 388.441 615 382.29 617.323 380.742C619.494 380.489 617.518 383.62 614.692 389.528C611.1 397.036 610.84 402.289 613.881 405.905C615.635 407.991 617.16 408.181 618.304 406.458C619.396 404.816 623.248 409.621 622.259 411.389C621.101 413.459 615.135 408.93 612.606 405.715C611.058 403.746 611.406 407.072 612.913 410.025C616.181 416.434 631.173 425.483 631.173 421.047C631.173 419.346 633.585 418.286 637.456 418.286C644.421 418.286 651.191 415.553 651.191 412.743C651.191 412.351 651.985 411.269 652.956 410.338C654.732 408.636 655.269 409.099 654.086 411.31C652.832 413.653 654.05 413.017 655.59 410.525C657.914 406.764 663.294 404.284 659.903 411.389C656.706 418.086 647.838 427.74 643.106 434.034L639.9 438.303L623.814 454.247L621.753 456.032Z" fill="#262626" fill-opacity="0.5"/>
<path d="M663 399.322C663 384.784 651.215 372.999 636.677 372.999C622.14 372.999 610.354 384.784 610.354 399.322C610.354 413.86 622.14 425.645 636.677 425.645C651.215 425.645 663 413.86 663 399.322Z" fill="white"/>
<path d="M620.859 378.281C619.091 381.818 618.097 385.809 618.097 390.032C618.097 404.57 629.882 416.355 644.419 416.355C650.356 416.355 655.834 414.389 660.238 411.073C655.921 419.712 646.992 425.645 636.677 425.645C622.14 425.645 610.355 413.86 610.355 399.322C610.355 390.722 614.479 383.085 620.859 378.281Z" fill="#212121"/>
<path fill-rule="evenodd" clip-rule="evenodd" d="M610.414 397.306C610.443 397.53 610.498 397.969 610.536 398.279C610.629 399.029 610.799 399.967 610.959 400.603C611.01 400.811 611.067 401.051 611.084 401.137C611.139 401.411 611.363 402.144 611.681 403.086L611.988 403.998L611.915 405.033C611.813 406.472 611.932 408.461 612.219 410.106C612.342 410.807 612.37 410.831 612.704 410.514C613.064 410.175 613.385 409.94 613.965 409.592C614.763 409.114 614.715 409.114 615.062 409.604C616.099 411.067 617.595 412.719 618.931 413.874C619.809 414.634 619.803 414.654 619.138 413.197C618.532 411.867 617.431 408.753 617.314 408.035C617.28 407.825 617.288 407.815 617.68 407.608C619.021 406.901 622.469 404.285 622.469 403.973C622.469 403.942 622.149 403.837 621.759 403.741C620.905 403.532 619.492 403.062 618.807 402.759C617.696 402.269 616.453 401.583 616.046 401.235C615.91 401.119 615.87 401.014 615.829 400.66C615.8 400.421 615.748 399.987 615.711 399.693C615.504 398.02 615.393 396.387 615.342 394.291C615.318 393.262 615.279 392.629 615.241 392.634C615.012 392.662 613.299 396.957 613.033 398.169C613.008 398.283 612.949 398.374 612.899 398.374C612.595 398.374 611.09 395.926 610.592 394.621C610.51 394.405 610.421 394.228 610.394 394.228C610.331 394.228 610.348 396.784 610.414 397.306ZM615.887 383.459C616.649 383.463 617.483 383.603 617.704 383.764C617.813 383.843 617.802 383.886 617.496 384.562C616.51 386.746 615.788 389.139 615.463 391.307C615.427 391.549 615.381 391.825 615.361 391.92C615.292 392.248 615.449 392.089 616.23 391.04C617.758 388.988 621.071 385.431 621.38 385.512C621.839 385.631 625.311 388.228 626.429 389.288C626.799 389.639 626.803 389.608 626.551 388.312C626.342 387.239 626.289 386.94 626.133 385.921C625.794 383.706 625.692 381.977 625.889 381.794C626.592 381.143 630.853 378.53 633.065 377.394C633.764 377.035 633.713 377.022 631.876 377.085C629.83 377.156 628.183 377.338 626.604 377.67C626.361 377.722 626.138 377.739 626.108 377.71C625.943 377.548 626.685 375.446 627.139 374.789C627.427 374.373 627.364 374.35 626.762 374.652C624.642 375.715 622.794 377.122 621.158 378.919C620.511 379.63 620.409 379.715 619.899 379.97C618.338 380.75 616.916 381.714 615.666 382.839C614.984 383.453 614.985 383.455 615.887 383.459ZM615.948 416.306C616.975 417.721 620.401 420.659 622.491 421.919C622.729 422.062 622.947 422.18 622.975 422.18C623.003 422.18 623.036 422.202 623.047 422.23C623.089 422.329 625.442 423.561 625.59 423.561C625.607 423.561 625.786 423.636 625.987 423.728C626.747 424.074 628.522 424.675 629.385 424.879C629.696 424.952 630.106 425.05 630.297 425.097C631.369 425.361 631.507 425.273 630.683 424.849C629.488 424.235 626.911 422.42 627.109 422.333C627.488 422.165 629.09 421.255 629.623 420.904C630.441 420.365 630.475 420.394 628.901 420.301C627.365 420.21 625.718 419.977 624.457 419.67C623.955 419.548 623.95 419.544 623.463 419.026C622.412 417.909 621.495 416.822 620.322 415.303L619.849 414.69L619.827 415.027C619.797 415.484 619.961 416.885 620.138 417.701C620.239 418.162 620.218 418.3 620.054 418.252C619.487 418.086 617.3 416.927 616.294 416.259C615.731 415.885 615.65 415.896 615.948 416.306ZM623.232 404.087C625.086 404.585 627.661 404.98 630.738 405.238L631.651 405.315L631.835 405.754C631.937 405.996 632.083 406.363 632.161 406.571C632.538 407.577 633.769 410.387 634.754 412.49C635.008 413.032 634.968 413.073 635.575 411.659C635.634 411.52 635.739 411.28 635.807 411.125C636.111 410.434 636.079 410.512 636.686 408.926C636.825 408.563 636.996 408.111 637.065 407.921C637.135 407.731 637.214 407.519 637.242 407.45C637.363 407.152 637.568 406.588 637.779 405.974C638.07 405.129 637.934 405.199 639.578 405.039C641.601 404.842 644.179 404.439 645.702 404.082C647.521 403.657 647.489 403.673 647.011 403.407C645.551 402.591 642.61 400.802 640.675 399.552C639.843 399.015 639.888 399.168 640.214 397.997C640.286 397.738 640.386 397.363 640.435 397.165C640.589 396.548 640.716 396.041 640.873 395.421C640.956 395.093 641.056 394.683 641.094 394.511C641.133 394.338 641.221 393.957 641.29 393.663C641.359 393.369 641.443 393.009 641.476 392.862C641.551 392.523 641.654 392.07 641.728 391.747C641.782 391.511 641.922 390.843 642.051 390.208C642.143 389.752 642.186 389.266 642.134 389.266C642.108 389.266 641.628 389.697 641.069 390.223C639.587 391.618 639.445 391.749 638.472 392.603C636.632 394.218 634.905 395.623 634.806 395.585C634.619 395.514 630.306 392.364 628.751 391.163C626.837 389.685 626.858 389.698 626.922 390.004C627.295 391.777 628.323 395.554 629.137 398.144C629.364 398.864 629.536 399.488 629.519 399.529C629.488 399.611 626.805 401.403 625.657 402.11C625.275 402.345 624.792 402.643 624.584 402.772C624.375 402.901 623.9 403.183 623.527 403.4C622.609 403.931 622.614 403.921 623.232 404.087ZM631.259 420.885C632.696 421.742 634.392 422.52 635.885 423.007C636.585 423.236 636.552 423.205 636.862 423.912C637.216 424.72 637.627 425.366 637.948 425.621C638.185 425.809 640.061 424.864 640.898 424.133C640.981 424.061 641.052 423.999 641.056 423.996C641.059 423.994 641.758 423.98 642.609 423.965C643.46 423.951 644.34 423.909 644.566 423.873C645.71 423.687 645.93 423.64 647.186 423.313C647.351 423.27 647.618 423.177 648.307 422.922C648.517 422.845 648.529 422.766 648.338 422.715C647.025 422.366 645.737 421.872 644.692 421.318C644.397 421.162 644.134 421.014 644.107 420.99C644.08 420.966 644.324 420.595 644.648 420.165C645.561 418.956 647.154 416.509 647.154 416.317C647.154 416.231 647.009 416.287 646.068 416.741C645.537 416.997 645.003 417.249 644.882 417.301C644.15 417.613 642.61 418.166 641.788 418.41C641.423 418.519 641.047 418.633 640.951 418.663C640.578 418.782 637.828 416.284 635.94 414.111C635.701 413.837 635.4 413.497 635.271 413.358L635.036 413.103L635.034 413.713C635.033 414.049 635.059 414.6 635.093 414.938C635.126 415.276 635.184 415.949 635.222 416.432C635.26 416.916 635.318 417.509 635.352 417.751C635.5 418.813 635.551 419.15 635.601 419.415C635.668 419.765 635.619 419.828 635.237 419.876C635.073 419.897 634.512 419.97 633.991 420.038C633.47 420.107 632.504 420.209 631.844 420.265C631.184 420.321 630.623 420.388 630.596 420.414C630.57 420.44 630.868 420.652 631.259 420.885ZM635.24 377.609C636.659 378.16 639.191 379.227 640.21 379.704C641.662 380.384 642.218 380.664 642.295 380.758C642.586 381.105 642.623 386.829 642.347 388.473C642.312 388.677 642.308 388.866 642.336 388.894C642.487 389.043 645.932 385.771 647.086 384.382C647.409 383.993 647.707 383.675 647.748 383.675C647.923 383.675 650.844 385.544 652.363 386.627C652.606 386.801 652.87 386.989 652.949 387.045C653.175 387.206 653.191 387.102 653.033 386.489C652.501 384.425 651.423 382.018 650.33 380.457C650.216 380.293 650.122 380.114 650.122 380.058C650.122 379.823 651.198 378.669 651.84 378.215C652.206 377.956 652.199 377.946 651.479 377.606C650.326 377.063 647.731 376.39 646.781 376.389C646.546 376.389 646.523 376.377 645.757 375.849C644.415 374.925 642.977 374.215 641.062 373.532C640.489 373.328 639.172 373.002 638.915 373.001L638.663 373L638.947 373.229C639.731 373.862 640.406 374.708 640.904 375.682C641.208 376.276 641.244 376.242 640.21 376.323C638.902 376.426 637.893 376.516 637.337 376.58C635.153 376.833 634.092 376.986 634.018 377.06C633.988 377.09 634.538 377.336 635.24 377.609ZM647.589 416.002C648.146 415.896 650.805 414.752 652.533 413.875C653.216 413.528 653.814 413.258 653.861 413.276C653.963 413.315 654.31 414.4 654.484 415.219C654.649 415.999 654.707 417.237 654.609 417.905C654.502 418.633 654.568 418.649 655.072 418.023C656.109 416.736 656.818 415.266 657.567 412.852C657.657 412.56 657.992 411.142 658.083 410.669C658.158 410.269 658.184 410.226 658.515 409.937C660.423 408.272 661.725 406.474 662.365 404.619C662.484 404.275 662.535 403.964 662.472 403.964C662.459 403.964 662.295 404.034 662.109 404.119C661.508 404.392 660.069 404.681 659.055 404.731L658.677 404.749L658.636 403.242C658.594 401.662 658.48 399.775 658.401 399.347L658.355 399.096L658.117 399.599C657.986 399.875 657.774 400.327 657.647 400.603C657.302 401.348 656.383 403.154 655.923 403.993L655.52 404.728L654.832 404.69C653.249 404.602 651.116 404.315 648.291 403.811C647.655 403.697 647.66 403.698 647.66 403.767C647.66 403.797 647.947 404.143 648.299 404.536C649.733 406.14 651.619 408.659 652.128 409.651L652.258 409.906L651.458 411.006C650.321 412.572 649.301 413.851 648.108 415.207C647.85 415.501 647.579 415.809 647.507 415.892L647.375 416.042L647.589 416.002ZM653.861 387.727C655.136 388.617 656.914 390.127 658.137 391.362L658.67 391.9L658.725 392.86C658.784 393.895 658.705 396.011 658.546 397.636C658.416 398.963 658.4 398.909 658.803 398.483C659.503 397.744 660.582 396.269 660.948 395.549C661.037 395.375 661.131 395.233 661.158 395.233C661.355 395.233 662.409 397.423 662.753 398.546C662.891 398.995 663.003 399.137 663 398.861C662.997 398.592 662.815 396.08 662.78 395.83C662.694 395.214 662.609 394.68 662.56 394.448C662.531 394.31 662.471 394.027 662.429 393.82C661.576 389.681 659.542 385.521 656.764 382.231C655.894 381.202 655.652 381.043 656.093 381.791C656.284 382.116 656.617 382.795 656.971 383.582C657.106 383.882 657.426 384.787 657.604 385.371C657.768 385.915 658.076 387.15 658.076 387.272C658.077 387.406 658.09 387.406 657.264 387.277C656.103 387.095 653.4 387.139 653.408 387.338C653.409 387.379 653.613 387.554 653.861 387.727Z" fill="#262626" fill-opacity="0.5"/>
<path d="M653.376 387.65C653.371 387.451 656.071 387.407 657.232 387.589C658.058 387.718 658.045 387.718 658.045 387.584C658.044 387.463 657.737 386.227 657.572 385.683C657.395 385.099 657.074 384.193 656.939 383.893C656.585 383.107 656.253 382.428 656.062 382.103C655.889 381.81 655.822 381.659 655.856 381.642C659.589 385.626 662.096 390.77 662.778 396.475C662.834 397.139 662.935 398.55 662.96 399.031C662.962 399.107 662.963 399.184 662.964 399.261C662.941 399.407 662.841 399.247 662.722 398.858C662.378 397.735 661.324 395.547 661.127 395.546C661.1 395.546 661.006 395.687 660.917 395.861C660.55 396.581 659.472 398.057 658.771 398.796C658.369 399.221 658.385 399.275 658.515 397.948C658.673 396.323 658.753 394.208 658.693 393.173L658.639 392.213L658.105 391.674C656.882 390.439 655.105 388.928 653.829 388.039C653.581 387.866 653.377 387.691 653.376 387.65ZM647.476 416.204C647.548 416.121 647.818 415.813 648.076 415.519C649.269 414.163 650.289 412.884 651.427 411.318L652.227 410.218L652.096 409.964C651.587 408.972 649.701 406.452 648.268 404.848C647.916 404.455 647.628 404.109 647.628 404.079C647.628 404.01 647.625 404.01 648.26 404.123C651.085 404.627 653.218 404.914 654.801 405.002L655.488 405.04L655.892 404.304C656.352 403.466 657.271 401.66 657.615 400.916C657.743 400.64 657.954 400.187 658.085 399.911L658.323 399.408L658.37 399.659C658.449 400.087 658.562 401.974 658.604 403.553L658.646 405.061L659.024 405.043C660.038 404.993 661.477 404.705 662.077 404.431C662.264 404.346 662.428 404.276 662.441 404.276C662.503 404.278 662.452 404.588 662.333 404.931C661.693 406.786 660.392 408.584 658.483 410.25C658.153 410.538 658.127 410.581 658.051 410.98C657.962 411.447 657.634 412.833 657.538 413.151C656.488 413.758 655.391 414.293 654.256 414.753C654.088 414.153 653.9 413.616 653.829 413.589C653.781 413.572 653.184 413.841 652.502 414.187C650.775 415.064 648.116 416.207 647.558 416.313L647.344 416.354L647.476 416.204ZM633.986 377.372C634.062 377.298 635.124 377.145 637.306 376.892C637.862 376.828 638.871 376.738 640.179 376.636C641.213 376.554 641.176 376.588 640.872 375.994C640.374 375.02 639.7 374.173 638.916 373.541L638.732 373.394C639.108 373.424 639.482 373.462 639.854 373.508C640.282 373.614 640.747 373.744 641.03 373.845C642.945 374.527 644.383 375.236 645.726 376.161C646.491 376.688 646.515 376.7 646.749 376.701C647.699 376.702 650.295 377.375 651.448 377.919C651.547 377.965 651.63 378.009 651.703 378.045C651.818 378.125 651.932 378.206 652.046 378.288C652.051 378.352 651.963 378.418 651.809 378.527C651.166 378.981 650.091 380.135 650.091 380.37C650.091 380.426 650.185 380.606 650.299 380.769C651.392 382.331 652.47 384.737 653.002 386.801C653.16 387.414 653.144 387.518 652.918 387.357C652.839 387.301 652.575 387.113 652.332 386.939C650.813 385.856 647.892 383.988 647.717 383.988C647.676 383.988 647.378 384.305 647.055 384.694C645.9 386.083 642.455 389.355 642.305 389.206C642.276 389.177 642.281 388.988 642.315 388.785C642.592 387.14 642.554 381.417 642.264 381.07C642.185 380.976 641.63 380.695 640.179 380.015C639.16 379.539 636.628 378.471 635.209 377.921C634.507 377.648 633.957 377.401 633.986 377.372ZM623.201 404.399C622.583 404.233 622.578 404.243 623.495 403.712C623.868 403.496 624.344 403.213 624.553 403.084C624.761 402.955 625.244 402.657 625.626 402.422C626.774 401.715 629.455 399.924 629.488 399.842C629.505 399.8 629.332 399.176 629.105 398.456C628.291 395.866 627.264 392.089 626.891 390.316C626.827 390.01 626.805 389.997 628.719 391.474C630.275 392.675 634.587 395.826 634.774 395.897C634.873 395.935 636.601 394.53 638.44 392.915C639.414 392.061 639.556 391.931 641.038 390.536C641.596 390.011 642.074 389.58 642.103 389.578C642.155 389.578 642.112 390.064 642.02 390.52C641.891 391.155 641.752 391.823 641.697 392.059C641.623 392.382 641.52 392.835 641.444 393.174C641.411 393.32 641.328 393.682 641.259 393.975C641.19 394.269 641.101 394.65 641.062 394.823C641.024 394.996 640.925 395.405 640.842 395.733C640.685 396.353 640.558 396.86 640.404 397.476C640.355 397.675 640.255 398.05 640.183 398.309C639.857 399.48 639.812 399.327 640.644 399.864C642.579 401.114 645.519 402.903 646.979 403.719C647.457 403.985 647.49 403.969 645.671 404.394C644.148 404.751 641.569 405.154 639.547 405.351C637.903 405.512 638.038 405.441 637.748 406.286C637.537 406.9 637.332 407.465 637.211 407.762C637.183 407.832 637.104 408.044 637.034 408.233C636.965 408.423 636.794 408.875 636.655 409.238C636.048 410.824 636.079 410.746 635.775 411.437C635.707 411.593 635.602 411.832 635.543 411.97C634.936 413.385 634.977 413.344 634.723 412.803C633.737 410.699 632.506 407.889 632.129 406.883C632.051 406.675 631.905 406.308 631.804 406.066L631.62 405.627L630.706 405.55C627.63 405.291 625.055 404.897 623.201 404.399ZM635.004 413.415L635.239 413.67C635.369 413.81 635.67 414.149 635.909 414.424C636.25 414.815 636.618 415.218 636.995 415.614C636.332 415.421 635.681 415.201 635.041 414.958C635.02 414.646 635.002 414.275 635.003 414.025L635.004 413.415ZM618.097 389.047C618.249 385.905 618.953 382.909 620.112 380.151C620.433 379.972 620.599 379.811 621.127 379.231C622.165 378.091 623.288 377.109 624.512 376.271C625.354 375.833 626.222 375.439 627.114 375.093C627.112 375.095 627.11 375.098 627.108 375.101C626.654 375.757 625.911 377.861 626.076 378.022C626.107 378.052 626.329 378.033 626.572 377.982C628.152 377.65 629.799 377.467 631.845 377.397C633.681 377.334 633.732 377.347 633.034 377.706C630.822 378.842 626.561 381.455 625.858 382.106C625.661 382.289 625.763 384.018 626.102 386.233C626.258 387.251 626.31 387.551 626.52 388.624C626.772 389.92 626.768 389.95 626.397 389.599C625.279 388.539 621.808 385.943 621.349 385.824C621.14 385.77 619.568 387.37 618.097 389.047ZM621.949 404.112C622.23 404.189 622.436 404.259 622.438 404.285C622.438 404.331 622.361 404.426 622.229 404.558C622.134 404.411 622.041 404.262 621.949 404.112Z" fill="#044B3C"/>
<path d="M569.762 445.775H632.361L623.813 454.247L621.753 456.032C619.575 457.92 617.354 459.662 615.116 461.258H567.175C567.086 460.333 567.032 459.362 567.026 458.468L567 454.199L569.762 445.775Z" fill="#212121"/>
<path d="M1280 0H0V796H1280V0Z" fill="url(#paint1_linear_32_179)"/>
<path d="M966 397.5C966 577.821 819.821 724 639.5 724C459.179 724 313 577.821 313 397.5C313 217.179 459.179 71 639.5 71C819.821 71 966 217.179 966 397.5ZM345.65 397.5C345.65 559.789 477.211 691.35 639.5 691.35C801.789 691.35 933.35 559.789 933.35 397.5C933.35 235.211 801.789 103.65 639.5 103.65C477.211 103.65 345.65 235.211 345.65 397.5Z" fill="#F5F5F5"/>
<path d="M640 423C653.807 423 665 411.807 665 398C665 384.193 653.807 373 640 373C626.193 373 615 384.193 615 398C615 411.807 626.193 423 640 423Z" fill="#F5F5F5"/>
<path d="M1280 385H0V410H1280V385Z" fill="#F5F5F5"/>
<path d="M621.753 456.032C599.594 475.239 573.071 479.58 567.811 464.864C567.393 463.694 567.04 460.815 567.026 458.468L567 454.199L572.212 438.303L574.127 434.917C581.468 421.94 592.438 409.189 604.657 399.431C609.581 395.501 609.842 395.175 610.13 392.612C610.601 388.441 615 382.29 617.323 380.742C619.494 380.489 617.518 383.62 614.692 389.528C611.1 397.036 610.84 402.289 613.881 405.905C615.635 407.991 617.16 408.181 618.304 406.458C619.396 404.816 623.248 409.621 622.259 411.389C621.101 413.459 615.135 408.93 612.606 405.715C611.058 403.746 611.406 407.072 612.913 410.025C616.181 416.434 631.173 425.483 631.173 421.047C631.173 419.346 633.585 418.286 637.456 418.286C644.421 418.286 651.191 415.553 651.191 412.743C651.191 412.351 651.985 411.269 652.956 410.338C654.732 408.636 655.269 409.099 654.086 411.31C652.832 413.653 654.05 413.017 655.59 410.525C657.914 406.764 663.294 404.284 659.903 411.389C656.706 418.086 647.838 427.74 643.106 434.034L639.9 438.303L623.814 454.247L621.753 456.032Z" fill="#262626" fill-opacity="0.5"/>
<path d="M663 399.322C663 384.784 651.215 372.999 636.677 372.999C622.14 372.999 610.354 384.784 610.354 399.322C610.354 413.86 622.14 425.645 636.677 425.645C651.215 425.645 663 413.86 663 399.322Z" fill="white"/>
<path d="M620.859 378.281C619.091 381.818 618.097 385.809 618.097 390.032C618.097 404.57 629.882 416.355 644.419 416.355C650.356 416.355 655.834 414.389 660.238 411.073C655.921 419.712 646.992 425.645 636.677 425.645C622.14 425.645 610.355 413.86 610.355 399.322C610.355 390.722 614.479 383.085 620.859 378.281Z" fill="#212121"/>
<path fill-rule="evenodd" clip-rule="evenodd" d="M610.414 397.306C610.443 397.53 610.498 397.969 610.536 398.279C610.629 399.029 610.799 399.967 610.959 400.603C611.01 400.811 611.067 401.051 611.084 401.137C611.139 401.411 611.363 402.144 611.681 403.086L611.988 403.998L611.915 405.033C611.813 406.472 611.932 408.461 612.219 410.106C612.342 410.807 612.37 410.831 612.704 410.514C613.064 410.175 613.385 409.94 613.965 409.592C614.763 409.114 614.715 409.114 615.062 409.604C616.099 411.067 617.595 412.719 618.931 413.874C619.809 414.634 619.803 414.654 619.138 413.197C618.532 411.867 617.431 408.753 617.314 408.035C617.28 407.825 617.288 407.815 617.68 407.608C619.021 406.901 622.469 404.285 622.469 403.973C622.469 403.942 622.149 403.837 621.759 403.741C620.905 403.532 619.492 403.062 618.807 402.759C617.696 402.269 616.453 401.583 616.046 401.235C615.91 401.119 615.87 401.014 615.829 400.66C615.8 400.421 615.748 399.987 615.711 399.693C615.504 398.02 615.393 396.387 615.342 394.291C615.318 393.262 615.279 392.629 615.241 392.634C615.012 392.662 613.299 396.957 613.033 398.169C613.008 398.283 612.949 398.374 612.899 398.374C612.595 398.374 611.09 395.926 610.592 394.621C610.51 394.405 610.421 394.228 610.394 394.228C610.331 394.228 610.348 396.784 610.414 397.306ZM615.887 383.459C616.649 383.463 617.483 383.603 617.704 383.764C617.813 383.843 617.802 383.886 617.496 384.562C616.51 386.746 615.788 389.139 615.463 391.307C615.427 391.549 615.381 391.825 615.361 391.92C615.292 392.248 615.449 392.089 616.23 391.04C617.758 388.988 621.071 385.431 621.38 385.512C621.839 385.631 625.311 388.228 626.429 389.288C626.799 389.639 626.803 389.608 626.551 388.312C626.342 387.239 626.289 386.94 626.133 385.921C625.794 383.706 625.692 381.977 625.889 381.794C626.592 381.143 630.853 378.53 633.065 377.394C633.764 377.035 633.713 377.022 631.876 377.085C629.83 377.156 628.183 377.338 626.604 377.67C626.361 377.722 626.138 377.739 626.108 377.71C625.943 377.548 626.685 375.446 627.139 374.789C627.427 374.373 627.364 374.35 626.762 374.652C624.642 375.715 622.794 377.122 621.158 378.919C620.511 379.63 620.409 379.715 619.899 379.97C618.338 380.75 616.916 381.714 615.666 382.839C614.984 383.453 614.985 383.455 615.887 383.459ZM615.948 416.306C616.975 417.721 620.401 420.659 622.491 421.919C622.729 422.062 622.947 422.18 622.975 422.18C623.003 422.18 623.036 422.202 623.047 422.23C623.089 422.329 625.442 423.561 625.59 423.561C625.607 423.561 625.786 423.636 625.987 423.728C626.747 424.074 628.522 424.675 629.385 424.879C629.696 424.952 630.106 425.05 630.297 425.097C631.369 425.361 631.507 425.273 630.683 424.849C629.488 424.235 626.911 422.42 627.109 422.333C627.488 422.165 629.09 421.255 629.623 420.904C630.441 420.365 630.475 420.394 628.901 420.301C627.365 420.21 625.718 419.977 624.457 419.67C623.955 419.548 623.95 419.544 623.463 419.026C622.412 417.909 621.495 416.822 620.322 415.303L619.849 414.69L619.827 415.027C619.797 415.484 619.961 416.885 620.138 417.701C620.239 418.162 620.218 418.3 620.054 418.252C619.487 418.086 617.3 416.927 616.294 416.259C615.731 415.885 615.65 415.896 615.948 416.306ZM623.232 404.087C625.086 404.585 627.661 404.98 630.738 405.238L631.651 405.315L631.835 405.754C631.937 405.996 632.083 406.363 632.161 406.571C632.538 407.577 633.769 410.387 634.754 412.49C635.008 413.032 634.968 413.073 635.575 411.659C635.634 411.52 635.739 411.28 635.807 411.125C636.111 410.434 636.079 410.512 636.686 408.926C636.825 408.563 636.996 408.111 637.065 407.921C637.135 407.731 637.214 407.519 637.242 407.45C637.363 407.152 637.568 406.588 637.779 405.974C638.07 405.129 637.934 405.199 639.578 405.039C641.601 404.842 644.179 404.439 645.702 404.082C647.521 403.657 647.489 403.673 647.011 403.407C645.551 402.591 642.61 400.802 640.675 399.552C639.843 399.015 639.888 399.168 640.214 397.997C640.286 397.738 640.386 397.363 640.435 397.165C640.589 396.548 640.716 396.041 640.873 395.421C640.956 395.093 641.056 394.683 641.094 394.511C641.133 394.338 641.221 393.957 641.29 393.663C641.359 393.369 641.443 393.009 641.476 392.862C641.551 392.523 641.654 392.07 641.728 391.747C641.782 391.511 641.922 390.843 642.051 390.208C642.143 389.752 642.186 389.266 642.134 389.266C642.108 389.266 641.628 389.697 641.069 390.223C639.587 391.618 639.445 391.749 638.472 392.603C636.632 394.218 634.905 395.623 634.806 395.585C634.619 395.514 630.306 392.364 628.751 391.163C626.837 389.685 626.858 389.698 626.922 390.004C627.295 391.777 628.323 395.554 629.137 398.144C629.364 398.864 629.536 399.488 629.519 399.529C629.488 399.611 626.805 401.403 625.657 402.11C625.275 402.345 624.792 402.643 624.584 402.772C624.375 402.901 623.9 403.183 623.527 403.4C622.609 403.931 622.614 403.921 623.232 404.087ZM631.259 420.885C632.696 421.742 634.392 422.52 635.885 423.007C636.585 423.236 636.552 423.205 636.862 423.912C637.216 424.72 637.627 425.366 637.948 425.621C638.185 425.809 640.061 424.864 640.898 424.133C640.981 424.061 641.052 423.999 641.056 423.996C641.059 423.994 641.758 423.98 642.609 423.965C643.46 423.951 644.34 423.909 644.566 423.873C645.71 423.687 645.93 423.64 647.186 423.313C647.351 423.27 647.618 423.177 648.307 422.922C648.517 422.845 648.529 422.766 648.338 422.715C647.025 422.366 645.737 421.872 644.692 421.318C644.397 421.162 644.134 421.014 644.107 420.99C644.08 420.966 644.324 420.595 644.648 420.165C645.561 418.956 647.154 416.509 647.154 416.317C647.154 416.231 647.009 416.287 646.068 416.741C645.537 416.997 645.003 417.249 644.882 417.301C644.15 417.613 642.61 418.166 641.788 418.41C641.423 418.519 641.047 418.633 640.951 418.663C640.578 418.782 637.828 416.284 635.94 414.111C635.701 413.837 635.4 413.497 635.271 413.358L635.036 413.103L635.034 413.713C635.033 414.049 635.059 414.6 635.093 414.938C635.126 415.276 635.184 415.949 635.222 416.432C635.26 416.916 635.318 417.509 635.352 417.751C635.5 418.813 635.551 419.15 635.601 419.415C635.668 419.765 635.619 419.828 635.237 419.876C635.073 419.897 634.512 419.97 633.991 420.038C633.47 420.107 632.504 420.209 631.844 420.265C631.184 420.321 630.623 420.388 630.596 420.414C630.57 420.44 630.868 420.652 631.259 420.885ZM635.24 377.609C636.659 378.16 639.191 379.227 640.21 379.704C641.662 380.384 642.218 380.664 642.295 380.758C642.586 381.105 642.623 386.829 642.347 388.473C642.312 388.677 642.308 388.866 642.336 388.894C642.487 389.043 645.932 385.771 647.086 384.382C647.409 383.993 647.707 383.675 647.748 383.675C647.923 383.675 650.844 385.544 652.363 386.627C652.606 386.801 652.87 386.989 652.949 387.045C653.175 387.206 653.191 387.102 653.033 386.489C652.501 384.425 651.423 382.018 650.33 380.457C650.216 380.293 650.122 380.114 650.122 380.058C650.122 379.823 651.198 378.669 651.84 378.215C652.206 377.956 652.199 377.946 651.479 377.606C650.326 377.063 647.731 376.39 646.781 376.389C646.546 376.389 646.523 376.377 645.757 375.849C644.415 374.925 642.977 374.215 641.062 373.532C640.489 373.328 639.172 373.002 638.915 373.001L638.663 373L638.947 373.229C639.731 373.862 640.406 374.708 640.904 375.682C641.208 376.276 641.244 376.242 640.21 376.323C638.902 376.426 637.893 376.516 637.337 376.58C635.153 376.833 634.092 376.986 634.018 377.06C633.988 377.09 634.538 377.336 635.24 377.609ZM647.589 416.002C648.146 415.896 650.805 414.752 652.533 413.875C653.216 413.528 653.814 413.258 653.861 413.276C653.963 413.315 654.31 414.4 654.484 415.219C654.649 415.999 654.707 417.237 654.609 417.905C654.502 418.633 654.568 418.649 655.072 418.023C656.109 416.736 656.818 415.266 657.567 412.852C657.657 412.56 657.992 411.142 658.083 410.669C658.158 410.269 658.184 410.226 658.515 409.937C660.423 408.272 661.725 406.474 662.365 404.619C662.484 404.275 662.535 403.964 662.472 403.964C662.459 403.964 662.295 404.034 662.109 404.119C661.508 404.392 660.069 404.681 659.055 404.731L658.677 404.749L658.636 403.242C658.594 401.662 658.48 399.775 658.401 399.347L658.355 399.096L658.117 399.599C657.986 399.875 657.774 400.327 657.647 400.603C657.302 401.348 656.383 403.154 655.923 403.993L655.52 404.728L654.832 404.69C653.249 404.602 651.116 404.315 648.291 403.811C647.655 403.697 647.66 403.698 647.66 403.767C647.66 403.797 647.947 404.143 648.299 404.536C649.733 406.14 651.619 408.659 652.128 409.651L652.258 409.906L651.458 411.006C650.321 412.572 649.301 413.851 648.108 415.207C647.85 415.501 647.579 415.809 647.507 415.892L647.375 416.042L647.589 416.002ZM653.861 387.727C655.136 388.617 656.914 390.127 658.137 391.362L658.67 391.9L658.725 392.86C658.784 393.895 658.705 396.011 658.546 397.636C658.416 398.963 658.4 398.909 658.803 398.483C659.503 397.744 660.582 396.269 660.948 395.549C661.037 395.375 661.131 395.233 661.158 395.233C661.355 395.233 662.409 397.423 662.753 398.546C662.891 398.995 663.003 399.137 663 398.861C662.997 398.592 662.815 396.08 662.78 395.83C662.694 395.214 662.609 394.68 662.56 394.448C662.531 394.31 662.471 394.027 662.429 393.82C661.576 389.681 659.542 385.521 656.764 382.231C655.894 381.202 655.652 381.043 656.093 381.791C656.284 382.116 656.617 382.795 656.971 383.582C657.106 383.882 657.426 384.787 657.604 385.371C657.768 385.915 658.076 387.15 658.076 387.272C658.077 387.406 658.09 387.406 657.264 387.277C656.103 387.095 653.4 387.139 653.408 387.338C653.409 387.379 653.613 387.554 653.861 387.727Z" fill="#262626" fill-opacity="0.5"/>
<path d="M653.376 387.65C653.371 387.451 656.071 387.407 657.232 387.589C658.058 387.718 658.045 387.718 658.045 387.584C658.044 387.463 657.737 386.227 657.572 385.683C657.395 385.099 657.074 384.193 656.939 383.893C656.585 383.107 656.253 382.428 656.062 382.103C655.889 381.81 655.822 381.659 655.856 381.642C659.589 385.626 662.096 390.77 662.778 396.475C662.834 397.139 662.935 398.55 662.96 399.031C662.962 399.107 662.963 399.184 662.964 399.261C662.941 399.407 662.841 399.247 662.722 398.858C662.378 397.735 661.324 395.547 661.127 395.546C661.1 395.546 661.006 395.687 660.917 395.861C660.55 396.581 659.472 398.057 658.771 398.796C658.369 399.221 658.385 399.275 658.515 397.948C658.673 396.323 658.753 394.208 658.693 393.173L658.639 392.213L658.105 391.674C656.882 390.439 655.105 388.928 653.829 388.039C653.581 387.866 653.377 387.691 653.376 387.65ZM647.476 416.204C647.548 416.121 647.818 415.813 648.076 415.519C649.269 414.163 650.289 412.884 651.427 411.318L652.227 410.218L652.096 409.964C651.587 408.972 649.701 406.452 648.268 404.848C647.916 404.455 647.628 404.109 647.628 404.079C647.628 404.01 647.625 404.01 648.26 404.123C651.085 404.627 653.218 404.914 654.801 405.002L655.488 405.04L655.892 404.304C656.352 403.466 657.271 401.66 657.615 400.916C657.743 400.64 657.954 400.187 658.085 399.911L658.323 399.408L658.37 399.659C658.449 400.087 658.562 401.974 658.604 403.553L658.646 405.061L659.024 405.043C660.038 404.993 661.477 404.705 662.077 404.431C662.264 404.346 662.428 404.276 662.441 404.276C662.503 404.278 662.452 404.588 662.333 404.931C661.693 406.786 660.392 408.584 658.483 410.25C658.153 410.538 658.127 410.581 658.051 410.98C657.962 411.447 657.634 412.833 657.538 413.151C656.488 413.758 655.391 414.293 654.256 414.753C654.088 414.153 653.9 413.616 653.829 413.589C653.781 413.572 653.184 413.841 652.502 414.187C650.775 415.064 648.116 416.207 647.558 416.313L647.344 416.354L647.476 416.204ZM633.986 377.372C634.062 377.298 635.124 377.145 637.306 376.892C637.862 376.828 638.871 376.738 640.179 376.636C641.213 376.554 641.176 376.588 640.872 375.994C640.374 375.02 639.7 374.173 638.916 373.541L638.732 373.394C639.108 373.424 639.482 373.462 639.854 373.508C640.282 373.614 640.747 373.744 641.03 373.845C642.945 374.527 644.383 375.236 645.726 376.161C646.491 376.688 646.515 376.7 646.749 376.701C647.699 376.702 650.295 377.375 651.448 377.919C651.547 377.965 651.63 378.009 651.703 378.045C651.818 378.125 651.932 378.206 652.046 378.288C652.051 378.352 651.963 378.418 651.809 378.527C651.166 378.981 650.091 380.135 650.091 380.37C650.091 380.426 650.185 380.606 650.299 380.769C651.392 382.331 652.47 384.737 653.002 386.801C653.16 387.414 653.144 387.518 652.918 387.357C652.839 387.301 652.575 387.113 652.332 386.939C650.813 385.856 647.892 383.988 647.717 383.988C647.676 383.988 647.378 384.305 647.055 384.694C645.9 386.083 642.455 389.355 642.305 389.206C642.276 389.177 642.281 388.988 642.315 388.785C642.592 387.14 642.554 381.417 642.264 381.07C642.185 380.976 641.63 380.695 640.179 380.015C639.16 379.539 636.628 378.471 635.209 377.921C634.507 377.648 633.957 377.401 633.986 377.372ZM623.201 404.399C622.583 404.233 622.578 404.243 623.495 403.712C623.868 403.496 624.344 403.213 624.553 403.084C624.761 402.955 625.244 402.657 625.626 402.422C626.774 401.715 629.455 399.924 629.488 399.842C629.505 399.8 629.332 399.176 629.105 398.456C628.291 395.866 627.264 392.089 626.891 390.316C626.827 390.01 626.805 389.997 628.719 391.474C630.275 392.675 634.587 395.826 634.774 395.897C634.873 395.935 636.601 394.53 638.44 392.915C639.414 392.061 639.556 391.931 641.038 390.536C641.596 390.011 642.074 389.58 642.103 389.578C642.155 389.578 642.112 390.064 642.02 390.52C641.891 391.155 641.752 391.823 641.697 392.059C641.623 392.382 641.52 392.835 641.444 393.174C641.411 393.32 641.328 393.682 641.259 393.975C641.19 394.269 641.101 394.65 641.062 394.823C641.024 394.996 640.925 395.405 640.842 395.733C640.685 396.353 640.558 396.86 640.404 397.476C640.355 397.675 640.255 398.05 640.183 398.309C639.857 399.48 639.812 399.327 640.644 399.864C642.579 401.114 645.519 402.903 646.979 403.719C647.457 403.985 647.49 403.969 645.671 404.394C644.148 404.751 641.569 405.154 639.547 405.351C637.903 405.512 638.038 405.441 637.748 406.286C637.537 406.9 637.332 407.465 637.211 407.762C637.183 407.832 637.104 408.044 637.034 408.233C636.965 408.423 636.794 408.875 636.655 409.238C636.048 410.824 636.079 410.746 635.775 411.437C635.707 411.593 635.602 411.832 635.543 411.97C634.936 413.385 634.977 413.344 634.723 412.803C633.737 410.699 632.506 407.889 632.129 406.883C632.051 406.675 631.905 406.308 631.804 406.066L631.62 405.627L630.706 405.55C627.63 405.291 625.055 404.897 623.201 404.399ZM635.004 413.415L635.239 413.67C635.369 413.81 635.67 414.149 635.909 414.424C636.25 414.815 636.618 415.218 636.995 415.614C636.332 415.421 635.681 415.201 635.041 414.958C635.02 414.646 635.002 414.275 635.003 414.025L635.004 413.415ZM618.097 389.047C618.249 385.905 618.953 382.909 620.112 380.151C620.433 379.972 620.599 379.811 621.127 379.231C622.165 378.091 623.288 377.109 624.512 376.271C625.354 375.833 626.222 375.439 627.114 375.093C627.112 375.095 627.11 375.098 627.108 375.101C626.654 375.757 625.911 377.861 626.076 378.022C626.107 378.052 626.329 378.033 626.572 377.982C628.152 377.65 629.799 377.467 631.845 377.397C633.681 377.334 633.732 377.347 633.034 377.706C630.822 378.842 626.561 381.455 625.858 382.106C625.661 382.289 625.763 384.018 626.102 386.233C626.258 387.251 626.31 387.551 626.52 388.624C626.772 389.92 626.768 389.95 626.397 389.599C625.279 388.539 621.808 385.943 621.349 385.824C621.14 385.77 619.568 387.37 618.097 389.047ZM621.949 404.112C622.23 404.189 622.436 404.259 622.438 404.285C622.438 404.331 622.361 404.426 622.229 404.558C622.134 404.411 622.041 404.262 621.949 404.112Z" fill="#044B3C"/>
<path d="M569.762 445.775H632.361L623.813 454.247L621.753 456.032C619.575 457.92 617.354 459.662 615.116 461.258H567.175C567.086 460.333 567.032 459.362 567.026 458.468L567 454.199L569.762 445.775Z" fill="#212121"/>
</g>
<defs>
<linearGradient id="paint0_linear_32_179" x1="640" y1="0" x2="640" y2="796" gradientUnits="userSpaceOnUse">
<stop stop-color="#2ECC71"/>
<stop offset="1" stop-color="#008459"/>
</linearGradient>
<linearGradient id="paint1_linear_32_179" x1="640" y1="0" x2="640" y2="796" gradientUnits="userSpaceOnUse">
<stop stop-color="#2ECC71"/>
<stop offset="1" stop-color="#008459"/>
</linearGradient>
<clipPath id="clip0_32_179">
<rect width="1280" height="796" fill="white"/>
</clipPath>
</defs>
</svg>
