<svg width="1280" height="796" viewBox="0 0 1280 796" fill="none" xmlns="http://www.w3.org/2000/svg">
<g clip-path="url(#clip0_32_200)">
<path d="M1280 0H0V796H1280V0Z" fill="url(#paint0_linear_32_200)"/>
<path d="M1280 385H0V410H1280V385Z" fill="#F5F5F5"/>
<path d="M195 796L195 0L170 0L170 796H195Z" fill="#F5F5F5"/>
<g filter="url(#filter0_d_32_200)">
<path d="M205.623 352.756C193.129 352.756 183 362.884 183 375.378C183 387.872 193.129 398 205.623 398C218.117 398 228.245 387.872 228.245 375.378C228.245 362.884 218.117 352.756 205.623 352.756Z" fill="#CDE2EC"/>
<path fill-rule="evenodd" clip-rule="evenodd" d="M183.067 377.115C182.986 376.046 182.978 374.958 183.052 373.857C183.566 366.193 187.847 359.687 193.966 356.002C192.53 358.396 191.524 361.077 191.056 363.94C187.519 366.879 182.745 371.819 183.067 377.115ZM225.026 387.018C220.794 394.055 212.861 398.536 204.11 397.948C192.905 397.197 184.157 388.404 183.107 377.582C183.122 377.709 183.14 377.836 183.161 377.963C183.178 377.915 185.166 372.143 190.783 366.511C190.765 366.879 190.755 367.25 190.755 367.622C190.755 378.395 198.286 387.408 208.37 389.687C207.633 391.326 206.959 392.806 206.471 393.839C204.863 397.261 201.655 397.433 201.623 397.435C201.967 397.47 202.305 397.491 202.633 397.475C204.931 397.36 206.806 396.046 207.804 394.849C208.233 394.334 209.213 392.391 210.318 390.038C211.319 390.174 212.34 390.244 213.378 390.244C217.639 390.244 221.624 389.066 225.026 387.018Z" fill="#4C4C4C"/>
<mask id="mask0_32_200" style="mask-type:alpha" maskUnits="userSpaceOnUse" x="190" y="345" width="47" height="46">
<path d="M213.379 345C200.885 345 190.756 355.128 190.756 367.622C190.756 380.116 200.885 390.244 213.379 390.244C225.873 390.244 236.001 380.116 236.001 367.622C236.001 355.128 225.873 345 213.379 345Z" fill="#CCCCCC"/>
</mask>
<g mask="url(#mask0_32_200)">
<path d="M183.052 373.857C183.889 361.393 194.684 351.989 207.152 352.806C219.62 353.642 229.047 364.433 228.192 376.916C227.355 389.361 216.56 398.785 204.111 397.949C191.643 397.113 182.216 386.321 183.052 373.857Z" fill="#FCEE0B"/>
<path d="M202.633 397.475C204.932 397.36 206.806 396.046 207.804 394.849C208.945 393.481 213.983 382.011 214.914 379.579C215.864 377.147 218.147 372.879 221.055 370.409C224.21 367.673 227.518 370.571 227.518 370.571C226.891 367.569 223.934 366.865 220.893 368.309C217.871 369.772 214.115 376.518 212.975 379.216C211.835 381.914 208.106 390.381 206.471 393.839C204.856 397.278 201.623 397.435 201.623 397.435C201.968 397.47 202.305 397.492 202.633 397.475ZM183.162 377.964C183.162 377.964 186.184 369.111 195.402 362.613C204.582 356.096 208.814 352.999 208.814 352.999L206.754 352.797L194.635 361.239C193.494 362.075 181.794 369.699 183.162 377.964Z" fill="white"/>
</g>
</g>
<path d="M1280 0H0V796H1280V0Z" fill="url(#paint1_linear_32_200)"/>
<path d="M1280 385H0V410H1280V385Z" fill="#F5F5F5"/>
<path d="M195 796L195 0L170 0L170 796H195Z" fill="#F5F5F5"/>
<g filter="url(#filter1_d_32_200)">
<path d="M205.623 352.756C193.129 352.756 183 362.884 183 375.378C183 387.872 193.129 398 205.623 398C218.117 398 228.245 387.872 228.245 375.378C228.245 362.884 218.117 352.756 205.623 352.756Z" fill="#CDE2EC"/>
<path d="M183.067 377.115C182.986 376.046 182.978 374.958 183.052 373.856C183.566 366.193 187.847 359.687 193.966 356.002C192.53 358.396 191.524 361.077 191.056 363.939C187.519 366.879 182.745 371.819 183.067 377.115ZM225.026 387.018C220.794 394.054 212.861 398.536 204.11 397.948C192.905 397.197 184.157 388.403 183.107 377.582C183.122 377.709 183.14 377.836 183.161 377.963C183.178 377.915 185.166 372.143 190.783 366.511C190.765 366.879 190.755 367.25 190.755 367.622C190.755 378.395 198.286 387.408 208.37 389.687C207.633 391.326 206.959 392.806 206.471 393.839C204.863 397.26 201.655 397.433 201.623 397.435C201.967 397.47 202.305 397.491 202.633 397.475C204.931 397.36 206.806 396.046 207.804 394.849C208.233 394.334 209.213 392.391 210.318 390.038C211.319 390.173 212.34 390.244 213.378 390.244C217.639 390.244 221.624 389.065 225.026 387.018Z" fill="#4C4C4C"/>
<mask id="mask1_32_200" style="mask-type:alpha" maskUnits="userSpaceOnUse" x="190" y="345" width="47" height="46">
<path d="M213.379 345C200.885 345 190.756 355.128 190.756 367.622C190.756 380.116 200.885 390.244 213.379 390.244C225.873 390.244 236.001 380.116 236.001 367.622C236.001 355.128 225.873 345 213.379 345Z" fill="#CCCCCC"/>
</mask>
<g mask="url(#mask1_32_200)">
<path d="M183.052 373.857C183.889 361.393 194.684 351.989 207.152 352.806C219.62 353.642 229.047 364.433 228.192 376.916C227.355 389.361 216.56 398.785 204.111 397.949C191.643 397.113 182.216 386.321 183.052 373.857Z" fill="#FCEE0B"/>
<path d="M202.633 397.475C204.932 397.36 206.806 396.046 207.804 394.849C208.945 393.481 213.983 382.011 214.914 379.579C215.864 377.147 218.147 372.879 221.055 370.409C224.21 367.673 227.518 370.571 227.518 370.571C226.891 367.569 223.934 366.865 220.893 368.309C217.871 369.772 214.115 376.518 212.975 379.216C211.835 381.914 208.106 390.381 206.471 393.839C204.856 397.278 201.623 397.435 201.623 397.435C201.968 397.47 202.305 397.492 202.633 397.475ZM183.162 377.964C183.162 377.964 186.184 369.111 195.402 362.613C204.582 356.096 208.814 352.999 208.814 352.999L206.754 352.797L194.635 361.239C193.494 362.075 181.794 369.699 183.162 377.964Z" fill="white"/>
</g>
</g>
</g>
<defs>
<filter id="filter0_d_32_200" x="155.8" y="352.756" width="72.4451" height="78.444" filterUnits="userSpaceOnUse" color-interpolation-filters="sRGB">
<feFlood flood-opacity="0" result="BackgroundImageFix"/>
<feColorMatrix in="SourceAlpha" type="matrix" values="0 0 0 0 0 0 0 0 0 0 0 0 0 0 0 0 0 0 127 0" result="hardAlpha"/>
<feOffset dx="-17" dy="23"/>
<feGaussianBlur stdDeviation="5.1"/>
<feComposite in2="hardAlpha" operator="out"/>
<feColorMatrix type="matrix" values="0 0 0 0 0 0 0 0 0 0 0 0 0 0 0 0 0 0 0.49 0"/>
<feBlend mode="normal" in2="BackgroundImageFix" result="effect1_dropShadow_32_200"/>
<feBlend mode="normal" in="SourceGraphic" in2="effect1_dropShadow_32_200" result="shape"/>
</filter>
<filter id="filter1_d_32_200" x="155.8" y="352.756" width="72.4451" height="78.444" filterUnits="userSpaceOnUse" color-interpolation-filters="sRGB">
<feFlood flood-opacity="0" result="BackgroundImageFix"/>
<feColorMatrix in="SourceAlpha" type="matrix" values="0 0 0 0 0 0 0 0 0 0 0 0 0 0 0 0 0 0 127 0" result="hardAlpha"/>
<feOffset dx="-17" dy="23"/>
<feGaussianBlur stdDeviation="5.1"/>
<feComposite in2="hardAlpha" operator="out"/>
<feColorMatrix type="matrix" values="0 0 0 0 0 0 0 0 0 0 0 0 0 0 0 0 0 0 0.49 0"/>
<feBlend mode="normal" in2="BackgroundImageFix" result="effect1_dropShadow_32_200"/>
<feBlend mode="normal" in="SourceGraphic" in2="effect1_dropShadow_32_200" result="shape"/>
</filter>
<linearGradient id="paint0_linear_32_200" x1="640" y1="0" x2="640" y2="796" gradientUnits="userSpaceOnUse">
<stop stop-color="#FF6B35"/>
<stop offset="1" stop-color="#4A1400"/>
</linearGradient>
<linearGradient id="paint1_linear_32_200" x1="640" y1="0" x2="640" y2="796" gradientUnits="userSpaceOnUse">
<stop stop-color="#FF6B35"/>
<stop offset="1" stop-color="#4A1400"/>
</linearGradient>
<clipPath id="clip0_32_200">
<rect width="1280" height="796" fill="white"/>
</clipPath>
</defs>
</svg>
