<svg width="1280" height="796" viewBox="0 0 1280 796" fill="none" xmlns="http://www.w3.org/2000/svg">
<g clip-path="url(#clip0_32_265)">
<path d="M1280 0H0V796H1280V0Z" fill="url(#paint0_linear_32_265)"/>
<path d="M1280 385H0V410H1280V385Z" fill="#F5F5F5"/>
<path d="M1280 0H0V796H1280V0Z" fill="url(#paint1_linear_32_265)"/>
<path d="M1280 385H0V410H1280V385Z" fill="#F5F5F5"/>
<g filter="url(#filter0_d_32_265)">
<path d="M459.621 364.261C436.767 364.261 418.241 382.788 418.241 405.641C418.241 428.494 436.767 447.021 459.621 447.021C482.474 447.021 501.001 428.494 501.001 405.641C501.001 382.788 482.474 364.261 459.621 364.261Z" fill="#073884"/>
<path d="M441.225 442.329C441.225 442.329 458.441 453.186 479.458 442.325C501.378 430.998 501.217 410.967 501.217 410.967L496.892 414C496.892 414 495.052 426.193 476.452 435.947C468.425 440.157 452.346 437.78 452.346 437.78L441.225 442.329Z" fill="#202B5A"/>
<path d="M452.754 437.749C452.754 437.749 445.873 421.907 442.227 414.931C434.632 400.396 428.426 393.919 428.426 393.919L418.397 400.53C418.397 400.53 417.471 405.727 417.664 408.332C417.784 409.938 418.296 413.339 418.772 414.892C419.011 415.673 419.49 415.891 419.49 415.891L419.172 416.43C419.172 416.43 421.391 422.41 422.932 425.189C424.479 427.978 428.392 433.047 428.392 433.047L429.246 433.521L429.67 434.409C429.67 434.409 433.215 438.06 435.255 439.561C436.877 440.754 440.486 442.581 440.486 442.581L441.642 442.664L452.176 438.057L452.754 437.749Z" fill="#178EC2"/>
<path d="M418.473 400.73C418.473 400.73 419.415 380.124 440.209 368.838C461.894 357.069 478.46 368.966 478.46 368.966L473.359 370.184C473.359 370.184 462.315 365.001 443.797 374.908C435.805 379.184 428.636 393.874 428.636 393.874L418.473 400.73Z" fill="#202B5A"/>
<path d="M497.061 414.28C497.061 414.28 489.091 399.015 485.367 392.08C477.609 377.631 473.2 370.203 473.2 370.203L478.209 368.846C478.209 368.846 483.029 371 485.075 372.624C486.336 373.625 488.862 375.959 489.88 377.225C490.391 377.862 490.303 378.381 490.303 378.381L490.927 378.421C490.927 378.421 495.247 383.248 496.823 386.048C498.387 388.828 500.256 394.98 500.256 394.98L500.169 395.953L500.665 396.802C500.665 396.802 501.693 401.786 501.789 404.317C501.865 406.329 501.35 410.341 501.35 410.341L500.767 411.341L498.398 413.568L497.061 414.28Z" fill="#178EC2"/>
<g opacity="0.1" filter="url(#filter1_f_32_265)">
<path d="M453.161 410.555C458.315 420.23 470.314 438.469 470.314 438.469L471.03 437.998C471.03 437.998 459.026 419.733 453.923 410.152C448.42 399.822 439.298 378.093 439.298 378.093L438.503 378.433C438.503 378.433 447.609 400.131 453.161 410.555ZM485.452 431.009L486.244 430.682C486.244 430.682 477.896 410.508 472.788 400.81C467.284 390.361 454.449 370.638 454.449 370.638L453.721 371.105C453.721 371.105 466.571 390.858 472.026 401.213C477.086 410.818 485.452 431.01 485.452 431.01V431.009Z" fill="black"/>
</g>
<path opacity="0.1" d="M419.231 416.33L419.26 416.365C419.26 416.365 421.136 415.039 422.046 414.625C427.168 412.3 437.559 409.762 439.167 409.376C439.002 409.09 438.845 408.814 438.682 408.536C436.473 409.064 426.779 411.439 421.652 413.767C420.783 414.162 419.538 415.006 418.988 415.392C419.221 415.77 419.485 415.89 419.485 415.89L419.231 416.33ZM428.593 433.162L429.24 433.52L429.405 433.87C430.115 433.588 431.084 433.175 431.725 432.783C436.452 429.898 443.684 423.393 445.529 421.712C445.389 421.413 445.258 421.117 445.119 420.823C443.728 422.088 435.973 429.084 431.236 431.975C430.601 432.363 429.246 432.909 428.593 433.162Z" fill="black"/>
<path opacity="0.1" d="M481.114 384.25C481.265 384.526 481.424 384.806 481.579 385.09C484.401 382.707 487.762 380.017 490.279 378.481C490.326 378.452 490.392 378.423 490.446 378.393L490.297 378.38C490.297 378.38 490.358 378.01 490.072 377.514C489.973 377.568 489.878 377.62 489.79 377.673C487.211 379.247 483.904 381.891 481.114 384.25ZM489.647 400.149C493.143 399.171 497.136 397.927 499.863 396.689C500.041 396.608 500.233 396.507 500.431 396.398L500.163 395.951L500.211 395.428C499.937 395.59 499.677 395.736 499.47 395.831C496.799 397.043 492.725 398.296 489.189 399.285C489.341 399.573 489.494 399.858 489.647 400.149Z" fill="black"/>
<path opacity="0.3" d="M453.456 410.401C458.52 419.909 470.096 437.52 470.413 438.002L470.571 437.898C470.245 437.402 458.682 419.793 453.63 410.308C448.178 400.072 439.35 379.069 439.124 378.531L438.941 378.609C439.166 379.143 447.991 400.144 453.455 410.401H453.456ZM485.628 430.573L485.803 430.501C485.582 429.966 477.516 410.498 472.496 400.967C467.08 390.686 454.664 371.586 454.348 371.1L454.182 371.208C454.498 371.694 466.916 390.798 472.321 401.06C477.329 410.567 485.401 430.026 485.629 430.575L485.628 430.573Z" fill="black"/>
<mask id="mask0_32_265" style="mask-type:alpha" maskUnits="userSpaceOnUse" x="425" y="357" width="83" height="84">
<path d="M466.6 357.281C443.747 357.281 425.22 375.808 425.22 398.661C425.22 421.514 443.747 440.041 466.6 440.041C489.454 440.041 507.98 421.514 507.98 398.661C507.98 375.808 489.454 357.281 466.6 357.281Z" fill="white"/>
</mask>
<g mask="url(#mask0_32_265)">
<path d="M459.621 364.261C436.767 364.261 418.241 382.788 418.241 405.641C418.241 428.494 436.767 447.021 459.621 447.021C482.474 447.021 501.001 428.494 501.001 405.641C501.001 382.788 482.474 364.261 459.621 364.261Z" fill="#073884"/>
<path d="M441.225 442.329C441.225 442.329 458.441 453.186 479.458 442.325C501.378 430.998 501.217 410.967 501.217 410.967L496.892 414C496.892 414 495.052 426.193 476.452 435.947C468.425 440.157 452.346 437.78 452.346 437.78L441.225 442.329Z" fill="#FBCB00"/>
<path d="M452.754 437.749C452.754 437.749 445.873 421.907 442.227 414.931C434.632 400.396 428.426 393.919 428.426 393.919L418.397 400.53C418.397 400.53 417.471 405.727 417.664 408.332C417.784 409.938 418.296 413.339 418.772 414.892C419.011 415.673 419.49 415.891 419.49 415.891L419.172 416.43C419.172 416.43 421.391 422.41 422.932 425.189C424.479 427.978 428.392 433.047 428.392 433.047L429.246 433.521L429.67 434.409C429.67 434.409 433.215 438.06 435.255 439.561C436.877 440.754 440.486 442.581 440.486 442.581L441.642 442.664L452.176 438.057L452.754 437.749Z" fill="white"/>
<path d="M418.473 400.73C418.473 400.73 419.415 380.124 440.209 368.838C461.894 357.069 478.46 368.966 478.46 368.966L473.359 370.184C473.359 370.184 462.315 365.001 443.797 374.908C435.805 379.184 428.636 393.874 428.636 393.874L418.473 400.73Z" fill="#FBCB00"/>
<path d="M497.061 414.28C497.061 414.28 489.091 399.015 485.367 392.08C477.609 377.631 473.2 370.203 473.2 370.203L478.209 368.846C478.209 368.846 483.029 371 485.075 372.624C486.336 373.625 488.862 375.959 489.88 377.225C490.391 377.862 490.303 378.381 490.303 378.381L490.927 378.421C490.927 378.421 495.247 383.248 496.823 386.048C498.387 388.828 500.256 394.98 500.256 394.98L500.169 395.953L500.665 396.802C500.665 396.802 501.693 401.786 501.789 404.317C501.865 406.329 501.35 410.341 501.35 410.341L500.767 411.341L498.398 413.568L497.061 414.28Z" fill="white"/>
<g opacity="0.1" filter="url(#filter2_f_32_265)">
<path d="M453.161 410.555C458.315 420.23 470.314 438.469 470.314 438.469L471.03 437.998C471.03 437.998 459.026 419.733 453.923 410.152C448.42 399.822 439.298 378.093 439.298 378.093L438.503 378.433C438.503 378.433 447.609 400.131 453.161 410.555ZM485.452 431.009L486.244 430.682C486.244 430.682 477.896 410.508 472.788 400.81C467.284 390.361 454.449 370.638 454.449 370.638L453.721 371.105C453.721 371.105 466.571 390.858 472.026 401.213C477.086 410.818 485.452 431.01 485.452 431.01V431.009Z" fill="black"/>
</g>
<path opacity="0.1" d="M419.231 416.33L419.26 416.365C419.26 416.365 421.136 415.039 422.046 414.625C427.168 412.3 437.559 409.762 439.167 409.376C439.002 409.09 438.845 408.814 438.682 408.536C436.473 409.064 426.779 411.439 421.652 413.767C420.783 414.162 419.538 415.006 418.988 415.392C419.221 415.77 419.485 415.89 419.485 415.89L419.231 416.33ZM428.593 433.162L429.24 433.52L429.405 433.87C430.115 433.588 431.084 433.175 431.725 432.783C436.452 429.898 443.684 423.393 445.529 421.712C445.389 421.413 445.258 421.117 445.119 420.823C443.728 422.088 435.973 429.084 431.236 431.975C430.601 432.363 429.246 432.909 428.593 433.162Z" fill="black"/>
<path opacity="0.1" d="M481.114 384.25C481.265 384.526 481.424 384.806 481.579 385.09C484.401 382.707 487.762 380.017 490.279 378.481C490.326 378.452 490.392 378.423 490.446 378.393L490.297 378.38C490.297 378.38 490.358 378.01 490.072 377.514C489.973 377.568 489.878 377.62 489.79 377.673C487.211 379.247 483.904 381.891 481.114 384.25ZM489.647 400.149C493.143 399.171 497.136 397.927 499.863 396.689C500.041 396.608 500.233 396.507 500.431 396.398L500.163 395.951L500.211 395.428C499.937 395.59 499.677 395.736 499.47 395.831C496.799 397.043 492.725 398.296 489.189 399.285C489.341 399.573 489.494 399.858 489.647 400.149Z" fill="black"/>
<path opacity="0.3" d="M453.456 410.401C458.52 419.909 470.096 437.52 470.413 438.002L470.571 437.898C470.245 437.402 458.682 419.793 453.63 410.308C448.178 400.072 439.35 379.069 439.124 378.531L438.941 378.609C439.166 379.143 447.991 400.144 453.455 410.401H453.456ZM485.628 430.573L485.803 430.501C485.582 429.966 477.516 410.498 472.496 400.967C467.08 390.686 454.664 371.586 454.348 371.1L454.182 371.208C454.498 371.694 466.916 390.798 472.321 401.06C477.329 410.567 485.401 430.026 485.629 430.575L485.628 430.573Z" fill="black"/>
</g>
</g>
</g>
<defs>
<filter id="filter0_d_32_265" x="388.538" y="363.64" width="120.359" height="121.613" filterUnits="userSpaceOnUse" color-interpolation-filters="sRGB">
<feFlood flood-opacity="0" result="BackgroundImageFix"/>
<feColorMatrix in="SourceAlpha" type="matrix" values="0 0 0 0 0 0 0 0 0 0 0 0 0 0 0 0 0 0 127 0" result="hardAlpha"/>
<feOffset dx="-11" dy="20"/>
<feGaussianBlur stdDeviation="9.05"/>
<feComposite in2="hardAlpha" operator="out"/>
<feColorMatrix type="matrix" values="0 0 0 0 0 0 0 0 0 0 0 0 0 0 0 0 0 0 0.25 0"/>
<feBlend mode="normal" in2="BackgroundImageFix" result="effect1_dropShadow_32_265"/>
<feBlend mode="normal" in="SourceGraphic" in2="effect1_dropShadow_32_265" result="shape"/>
</filter>
<filter id="filter1_f_32_265" x="437.596" y="369.731" width="49.5549" height="69.6447" filterUnits="userSpaceOnUse" color-interpolation-filters="sRGB">
<feFlood flood-opacity="0" result="BackgroundImageFix"/>
<feBlend mode="normal" in="SourceGraphic" in2="BackgroundImageFix" result="shape"/>
<feGaussianBlur stdDeviation="0.453424" result="effect1_foregroundBlur_32_265"/>
</filter>
<filter id="filter2_f_32_265" x="437.596" y="369.731" width="49.5549" height="69.6447" filterUnits="userSpaceOnUse" color-interpolation-filters="sRGB">
<feFlood flood-opacity="0" result="BackgroundImageFix"/>
<feBlend mode="normal" in="SourceGraphic" in2="BackgroundImageFix" result="shape"/>
<feGaussianBlur stdDeviation="0.453424" result="effect1_foregroundBlur_32_265"/>
</filter>
<linearGradient id="paint0_linear_32_265" x1="640" y1="0" x2="640" y2="796" gradientUnits="userSpaceOnUse">
<stop stop-color="#0052CC"/>
<stop offset="1" stop-color="#002C6E"/>
</linearGradient>
<linearGradient id="paint1_linear_32_265" x1="640" y1="0" x2="640" y2="796" gradientUnits="userSpaceOnUse">
<stop stop-color="#0052CC"/>
<stop offset="1" stop-color="#002C6E"/>
</linearGradient>
<clipPath id="clip0_32_265">
<rect width="1280" height="796" fill="white"/>
</clipPath>
</defs>
</svg>
